<?xml version="1.0" encoding="UTF-8"?>
<svg width="269px" height="53px" viewBox="0 0 269 53" version="1.1" xmlns="http://www.w3.org/2000/svg" xmlns:xlink="http://www.w3.org/1999/xlink">
    <!-- Generator: Sketch 46.2 (44496) - http://www.bohemiancoding.com/sketch -->
    <title>Page 1</title>
    <desc>Created with Sketch.</desc>
    <defs>
        <polygon id="path-1" points="0 53.833 268.115 53.833 268.115 1 0 1"></polygon>
    </defs>
    <g id="Page-1" stroke="none" stroke-width="1" fill="none" fill-rule="evenodd">
        <g id="特定人員/PEP" transform="translate(-720.000000, -28.000000)">
            <g id="Page-1" transform="translate(720.000000, 27.000000)">
                <g id="Group-3" transform="translate(83.000000, 0.833000)" fill="#FEFEFE">
                    <path d="M0.3779,0.3592 C2.7529,0.6132 10.9829,1.7972 17.6849,8.1442 C24.3879,14.4902 26.2539,22.0212 26.4239,26.8432 C26.5929,31.7522 24.3029,39.6212 16.3279,46.3052 C8.3529,52.9902 0.4629,52.9062 0.4629,52.9062 C9.7949,53.6672 17.8549,48.9282 22.8599,44.2752 C27.8659,39.7062 36.0109,25.9132 25.4059,11.8672 C14.8009,-2.2638 0.3779,0.3592 0.3779,0.3592" id="Fill-1"></path>
                </g>
                <g id="Group-6" transform="translate(0.000000, 0.833000)" fill="#FEFEFE">
                    <path d="M4.2519,26.2518 C4.0819,21.3438 6.3729,13.4748 14.3479,6.8748 C22.3229,0.1898 30.2129,0.2748 30.2129,0.2748 C20.8799,-0.4862 12.8209,4.2518 7.7299,8.9058 C2.7249,13.5598 -5.4201,27.2678 5.1849,41.3138 C15.7899,55.3588 30.2129,52.8208 30.2129,52.8208 C27.8369,52.5668 19.6079,51.3828 12.9049,45.0368 C6.2029,38.6058 4.3359,31.1588 4.2519,26.2518" id="Fill-4"></path>
                </g>
                <path d="M56.8798,49.745 C33.6518,49.745 16.1958,39.728 16.1958,27.417 C16.1958,15.104 33.6518,5.089 56.8798,5.089 C80.1088,5.089 97.5248,15.104 97.5248,27.417 C97.5248,39.728 80.1088,49.745 56.8798,49.745 M100.4668,27.417 C100.4668,14.286 80.9528,3.641 56.8798,3.641 C32.8078,3.641 13.2928,14.286 13.2928,27.417 C13.2928,40.547 32.8078,51.191 56.8798,51.191 C80.9528,51.191 100.4668,40.547 100.4668,27.417" id="Fill-7" fill="#FEFEFE"></path>
                <path d="M42.6049,37.244 C41.0659,36.111 38.6109,31.776 38.2209,31.288 L33.9819,25.037 L38.7569,19.242 C40.0119,17.929 41.9439,17.82 44.6829,17.638 L44.6979,16.586 C43.5609,16.625 37.0779,17.131 35.7779,17.097 L35.7779,17.917 C36.8689,17.991 37.0389,17.894 37.1889,18.769 C35.5809,20.66 30.5349,27.042 30.5349,27.042 L29.4909,27.061 L29.4909,22.449 C29.4909,19.333 29.2409,18.608 32.3829,18.352 L32.3939,17.521 C30.6909,17.56 25.3639,18.092 23.7919,18.056 L23.7919,19.14 C24.3329,19.097 24.8669,19.046 25.5129,19.487 C25.4659,24.861 25.1979,35.513 25.1139,36.54 C24.6769,37.33 23.7599,37.229 23.1149,37.316 L23.1409,38.156 C27.4159,37.838 30.3839,38.507 31.9879,38.546 L32.0609,37.488 C29.4409,37.316 29.5089,37.074 29.4909,34.404 L29.4909,28.16 L30.5299,28.16 C30.5299,28.16 35.9239,36.069 35.9239,36.773 C35.9239,37.86 35.0519,37.771 34.4629,37.771 L34.4629,38.845 C36.1269,38.816 43.8339,39.01 45.5679,39.04 L45.5579,37.771 C44.7689,37.697 43.2609,37.744 42.6049,37.244" id="Fill-9" fill="#FEFEFE"></path>
                <path d="M76.5459,13.7762 L76.5039,12.3102 C74.5119,12.3682 67.1529,11.9992 65.3059,11.9642 L65.4199,13.4122 C67.1739,13.5472 68.6899,13.3822 68.0179,15.7472 C67.4929,17.5812 60.6799,33.8162 60.6799,33.8162 C60.6799,33.8162 53.0069,15.9582 52.7119,15.2802 C51.7059,13.0512 53.1789,12.9972 55.5739,12.9972 L55.5129,11.7932 C52.7489,11.8362 44.6599,12.2502 41.1249,12.2502 L41.1489,13.5132 C44.7999,13.5132 44.3999,14.4552 46.4619,18.6732 L56.6089,43.0412 L59.4309,43.0162 L69.8879,19.0322 C72.0719,14.2902 72.9579,13.4662 76.5459,13.7762" id="Fill-11" fill="#FEFEFE"></path>
                <path d="M82.9848,37.7547 C82.6438,37.7487 81.4818,37.5707 80.9788,36.6217 C80.4758,35.6757 80.4608,34.0017 80.4608,32.8697 L80.4788,28.1087 C80.4788,28.1087 82.5558,27.5297 84.0858,28.2827 C85.9798,29.2117 86.9018,30.8237 86.8378,33.2837 C86.7658,36.4357 85.2868,37.8297 82.9848,37.7547 L82.9848,37.7547 Z M80.3918,20.2567 C80.3918,19.9867 80.3918,19.0637 80.4608,18.8617 C80.7138,18.2497 81.8788,18.4917 82.3078,18.5967 C83.7528,18.9247 85.7368,20.7577 85.8478,23.0127 C85.9088,24.3707 85.7558,25.6207 84.3608,26.5247 C83.0688,27.2827 81.1958,27.0067 80.9528,26.9297 L80.4098,26.5607 L80.3918,20.2567 Z M86.4458,27.2637 L86.4568,27.0867 C88.2188,26.0167 89.8888,25.5247 89.8488,22.7877 C89.7908,19.2087 85.4198,17.5087 81.9368,17.3657 C80.6058,17.3107 79.2878,17.2587 77.9678,17.2857 C76.3608,17.2587 74.6758,17.3657 73.0778,17.3297 L73.1438,18.2497 C74.2048,18.2497 75.3268,17.9927 75.6868,19.1527 C75.9938,20.0457 76.1308,22.5917 76.1308,23.6527 L76.1308,32.9667 C76.1308,34.0307 76.2608,36.8187 75.8028,37.4047 C75.0328,38.3597 74.1408,38.4597 73.0778,38.4597 L73.0988,39.3037 C74.9878,39.1007 76.9568,39.0827 78.8198,39.0437 C80.2858,39.0827 81.7098,39.0157 83.1698,39.0437 C85.0908,39.0437 86.4138,38.8407 88.1478,37.7927 C89.9868,36.6707 90.9978,35.2277 91.1298,32.9667 C91.2308,31.0517 90.2138,29.4807 89.6318,28.9507 C88.4628,27.8787 87.6658,27.5877 86.4458,27.2637 L86.4458,27.2637 Z" id="Fill-13" fill="#FEFEFE"></path>
                <path d="M149.4482,21.2801 C148.3442,20.9291 147.7162,20.6281 146.7382,19.6991 C145.7092,18.7201 142.8732,15.8851 140.7652,13.5021 C140.6912,13.4011 140.6912,13.2001 140.7652,13.1501 C143.3502,10.7171 144.3042,9.9141 145.3322,9.1111 C146.3362,8.3071 147.3152,7.8311 148.4192,7.6301 C148.9712,7.5301 149.2222,7.2781 149.2222,7.1031 C149.2222,6.8521 149.0462,6.6271 148.2932,6.6271 C147.3152,6.6271 146.1352,6.7771 144.6802,6.8011 L143.3252,6.8011 C142.8732,6.8011 142.6982,7.1031 142.6982,7.2291 C142.6982,7.5051 142.9492,7.7061 143.4262,7.8061 C144.2792,7.9811 144.3792,8.2581 144.1782,8.5091 C143.4762,9.3371 140.6152,12.0721 138.9842,13.4511 C138.6832,13.7271 138.4832,13.7771 138.3822,13.7771 C138.2072,13.7771 138.1312,13.7021 138.1062,13.5771 C138.0312,13.0001 138.1562,9.0601 138.1562,8.7341 C138.1562,8.3331 138.3572,8.0071 139.4862,7.7301 C139.6872,7.6801 140.1142,7.4551 140.1142,7.1531 C140.1142,6.8781 139.6362,6.7521 139.4362,6.7521 C139.1602,6.7521 137.9302,6.8011 136.7262,6.8011 C136.0992,6.8011 134.5682,6.6761 134.2172,6.6761 C133.8412,6.6761 133.5392,6.9271 133.5392,7.1281 C133.5392,7.3541 133.8152,7.5801 134.3672,7.7061 C135.7472,8.0321 135.7732,8.4081 135.8232,8.8601 C135.8732,9.3621 135.8732,9.7131 135.8732,13.5771 C135.8732,17.8171 135.8232,18.7961 135.7732,19.6491 C135.6972,20.7031 135.3462,20.9791 134.0162,21.3051 C133.5902,21.4061 133.3392,21.5561 133.3392,21.8571 C133.3392,22.1341 133.7652,22.2841 134.0662,22.2841 C134.5182,22.2841 136.1492,22.1341 137.3282,22.1341 C138.1062,22.1341 139.5612,22.2341 139.8632,22.2341 C140.1642,22.2341 140.5402,22.0331 140.5402,21.7821 C140.5402,21.5811 140.3892,21.3551 139.6872,21.2051 C138.7592,21.0041 138.2822,20.9041 138.1812,19.8001 C138.0812,18.5191 138.1062,16.1611 138.1062,15.0081 C138.1062,14.7311 138.2072,14.5301 138.3822,14.5301 C138.4832,14.5301 138.7342,14.6311 139.0102,14.8821 C140.2142,16.0871 143.2502,19.2481 144.1782,20.3011 C144.5302,20.7031 144.4292,20.9791 143.8272,21.1551 C143.3762,21.2801 143.1752,21.4801 143.1752,21.6811 C143.1752,21.9081 143.4262,22.1341 143.7772,22.1341 L145.0562,22.1341 C146.0102,22.1341 148.2682,22.3081 149.4482,22.3081 C149.8992,22.3081 150.1752,22.0081 150.1752,21.8831 C150.1752,21.5811 150.0002,21.4561 149.4482,21.2801" id="Fill-15" fill="#FEFEFE"></path>
                <path d="M166.1621,6.702 C165.3341,6.702 164.8821,6.802 163.9291,6.802 C163.0501,6.802 162.4741,6.752 161.9221,6.752 C161.4701,6.752 161.0681,6.878 161.0681,7.179 C161.0681,7.329 161.2681,7.58 161.7211,7.73 C163.0501,8.157 163.1261,8.333 162.6991,9.562 C162.1471,11.193 160.2151,15.86 159.2361,18.169 C159.1361,18.345 159.0111,18.294 158.9101,18.169 C158.4081,17.516 155.4481,9.788 155.2971,8.91 C155.1721,8.157 155.4731,7.956 156.1251,7.781 C156.5521,7.655 156.8521,7.43 156.8521,7.229 C156.8521,6.978 156.5771,6.752 156.0991,6.752 C155.4231,6.752 154.6201,6.802 153.7161,6.802 C152.7881,6.802 151.7841,6.677 150.9561,6.677 C150.5551,6.677 150.1531,6.852 150.1531,7.103 C150.1531,7.329 150.3791,7.53 150.8301,7.681 C152.1611,8.106 152.3101,8.307 152.6371,8.96 C153.0891,9.889 156.1501,17.617 156.6521,18.947 C157.1291,20.201 157.5801,21.731 157.7061,22.108 C157.8071,22.409 158.0321,22.636 158.2071,22.636 C158.5091,22.636 158.8351,22.284 158.9611,21.983 C159.1111,21.657 159.5621,20.151 160.1141,18.796 C161.7451,14.831 163.4011,11.018 164.1541,9.562 C164.7061,8.509 165.1081,7.956 166.1111,7.706 C166.6391,7.58 166.9901,7.404 166.9901,7.128 C166.9901,6.902 166.7141,6.702 166.1621,6.702" id="Fill-17" fill="#FEFEFE"></path>
                <path d="M172.914,19.7996 C172.738,18.9966 172.738,15.6096 172.813,15.1076 C172.889,14.7566 173.089,14.5296 173.14,14.5056 C173.266,14.4556 173.942,14.3796 174.319,14.3796 C176.452,14.3796 178.334,15.3836 178.334,17.7416 C178.334,18.5196 178.083,19.2226 177.807,19.8246 C177.556,20.3266 176.251,21.3056 174.996,21.3056 C174.545,21.3056 173.114,20.7026 172.914,19.7996 M172.838,8.1566 C172.863,7.9056 172.964,7.8066 173.064,7.7556 C173.165,7.7056 173.566,7.6296 173.867,7.6296 C176.427,7.6296 177.405,9.0606 177.405,10.5656 C177.405,12.1466 176.527,12.8746 176.276,13.0256 C175.925,13.1996 174.821,13.4266 173.517,13.4266 C173.189,13.4266 172.863,13.3256 172.838,13.1756 C172.738,12.6736 172.764,9.8386 172.838,8.1566 M177.832,21.7066 C179.287,21.1546 180.918,19.9496 180.918,17.4906 C180.918,15.6096 179.438,14.2296 177.656,13.6776 C177.531,13.6276 177.455,13.3766 177.506,13.3516 C178.008,13.1506 178.735,12.6986 178.936,12.4476 C179.413,11.9456 179.714,11.2936 179.714,10.3646 C179.714,9.3366 179.236,8.3076 178.359,7.6296 C177.706,7.1036 176.477,6.6266 174.645,6.6266 C172.964,6.6266 171.408,6.8016 170.505,6.8016 L169.226,6.8016 C168.598,6.8016 168.247,6.9526 168.247,7.2036 C168.247,7.5046 168.598,7.7056 168.874,7.7306 C170.254,7.9056 170.479,8.1316 170.556,8.9856 C170.631,9.7376 170.605,12.0716 170.605,13.4266 C170.605,18.9466 170.556,19.0476 170.505,19.4986 C170.38,20.8536 169.853,20.9036 168.849,21.1296 C168.197,21.2796 167.895,21.4056 167.895,21.7816 C167.895,22.0576 168.372,22.2086 168.724,22.2086 C169.2,22.2086 169.651,22.1336 170.505,22.1576 C171.509,22.1836 172.838,22.2836 174.419,22.2836 C175.523,22.2836 176.804,22.1086 177.832,21.7066" id="Fill-19" fill="#FEFEFE"></path>
                <path d="M209.5009,21.2801 C208.3969,20.9291 207.7699,20.6281 206.7909,19.6991 C205.7619,18.7201 202.9269,15.8851 200.8179,13.5021 C200.7439,13.4011 200.7439,13.2001 200.8179,13.1501 C203.4029,10.7171 204.3559,9.9141 205.3859,9.1111 C206.3889,8.3071 207.3679,7.8311 208.4729,7.6301 C209.0239,7.5301 209.2749,7.2781 209.2749,7.1031 C209.2749,6.8521 209.0989,6.6271 208.3469,6.6271 C207.3679,6.6271 206.1879,6.7771 204.7329,6.8011 L203.3789,6.8011 C202.9269,6.8011 202.7509,7.1031 202.7509,7.2291 C202.7509,7.5051 203.0019,7.7061 203.4789,7.8061 C204.3319,7.9811 204.4329,8.2581 204.2309,8.5091 C203.5289,9.3371 200.6679,12.0721 199.0369,13.4511 C198.7359,13.7271 198.5359,13.7771 198.4359,13.7771 C198.2599,13.7771 198.1849,13.7021 198.1589,13.5771 C198.0839,13.0001 198.2089,9.0601 198.2089,8.7341 C198.2089,8.3331 198.4099,8.0071 199.5389,7.7301 C199.7399,7.6801 200.1669,7.4551 200.1669,7.1531 C200.1669,6.8781 199.6889,6.7521 199.4889,6.7521 C199.2129,6.7521 197.9829,6.8011 196.7789,6.8011 C196.1519,6.8011 194.6209,6.6761 194.2709,6.6761 C193.8939,6.6761 193.5919,6.9271 193.5919,7.1281 C193.5919,7.3541 193.8679,7.5801 194.4199,7.7061 C195.8009,8.0321 195.8259,8.4081 195.8759,8.8601 C195.9259,9.3621 195.9259,9.7131 195.9259,13.5771 C195.9259,17.8171 195.8759,18.7961 195.8259,19.6491 C195.7499,20.7031 195.3979,20.9791 194.0689,21.3051 C193.6429,21.4061 193.3919,21.5561 193.3919,21.8571 C193.3919,22.1341 193.8179,22.2841 194.1189,22.2841 C194.5709,22.2841 196.2019,22.1341 197.3809,22.1341 C198.1589,22.1341 199.6139,22.2341 199.9159,22.2341 C200.2169,22.2341 200.5929,22.0331 200.5929,21.7821 C200.5929,21.5811 200.4419,21.3551 199.7399,21.2051 C198.8119,21.0041 198.3349,20.9041 198.2339,19.8001 C198.1339,18.5191 198.1589,16.1611 198.1589,15.0081 C198.1589,14.7311 198.2599,14.5301 198.4359,14.5301 C198.5359,14.5301 198.7859,14.6311 199.0629,14.8821 C200.2669,16.0871 203.3029,19.2481 204.2309,20.3011 C204.5829,20.7031 204.4819,20.9791 203.8799,21.1551 C203.4279,21.2801 203.2279,21.4801 203.2279,21.6811 C203.2279,21.9081 203.4789,22.1341 203.8299,22.1341 L205.1089,22.1341 C206.0629,22.1341 208.3209,22.3081 209.5009,22.3081 C209.9519,22.3081 210.2289,22.0081 210.2289,21.8831 C210.2289,21.5811 210.0529,21.4561 209.5009,21.2801" id="Fill-21" fill="#FEFEFE"></path>
                <path d="M218.0595,20.8036 C218.1605,20.7286 218.2855,20.8786 218.2855,20.9046 C218.3105,21.2296 218.3355,21.8826 218.3615,22.0576 C218.3855,22.2346 218.5365,22.4856 218.6365,22.4856 C218.8625,22.4856 219.3145,22.4086 219.7155,22.3086 C220.1665,22.1836 221.1465,22.0326 221.7735,21.9576 C221.9235,21.9326 222.2005,21.7066 222.2005,21.2806 C222.2005,21.1806 222.0485,20.8536 221.9985,20.8536 C221.7475,20.8786 220.8955,21.0036 220.7195,21.0036 C220.6685,21.0036 220.3435,20.9296 220.3185,20.0506 C220.2675,18.9476 220.2925,13.5516 220.2925,12.4726 C220.2925,12.1976 220.1175,11.8706 220.0175,11.8706 C219.8405,11.8706 218.6365,11.9466 218.2355,11.9466 C217.8085,11.9716 217.4565,11.9466 217.0315,11.9466 C216.7055,11.9466 216.4035,12.1976 216.4035,12.3476 C216.4035,12.5736 216.6545,12.7746 217.0055,12.9006 C217.3065,12.9996 217.5825,13.1256 217.8335,13.2256 C218.0095,13.2766 218.2105,13.7276 218.2105,14.0026 C218.2105,15.2076 218.2105,18.2686 218.1105,19.0966 C218.0345,19.7996 217.5335,20.2006 217.4325,20.2766 C217.1815,20.4516 216.3535,20.8286 215.6005,20.8286 C215.2755,20.8286 214.6725,20.7526 214.2705,20.5026 C213.9445,20.2006 213.6685,19.9246 213.6435,18.5706 C213.6195,16.8146 213.6195,13.7016 213.6195,12.6236 C213.6195,12.0966 213.5425,11.8216 213.3685,11.8216 C213.1915,11.8216 211.4355,11.9466 210.8835,11.9466 C210.7835,11.9466 210.1055,12.0216 210.1055,12.3716 C210.1055,12.6236 210.3565,12.7996 210.6325,12.9496 C211.3605,13.3256 211.5855,13.8276 211.5855,14.0536 L211.5855,20.1256 C211.5855,20.7286 211.9125,21.3306 212.1635,21.5806 C212.5145,21.9836 213.3425,22.4346 214.1455,22.4346 C215.7015,22.4346 216.8555,21.6816 218.0595,20.8036" id="Fill-23" fill="#FEFEFE"></path>
                <path d="M234.2705,21.1043 C233.8185,20.8783 233.6425,20.6533 233.6175,19.9243 C233.5675,18.7953 233.5675,17.3913 233.5425,16.1613 C233.5175,14.4303 233.1915,13.4013 232.7905,12.8243 C232.4135,12.2723 231.7605,11.6443 230.4815,11.6443 C228.9005,11.6443 227.6965,12.3973 226.9175,12.9243 C226.8425,12.9743 226.7165,12.9743 226.7425,12.8493 C226.7675,12.5983 226.7925,11.8713 226.7925,11.7453 C226.7925,11.5443 226.4415,11.4443 226.3665,11.4443 C226.3165,11.4443 226.0145,11.5443 225.7135,11.6953 C225.2115,11.9463 224.5595,12.1713 224.0825,12.3973 C223.8575,12.4983 223.6305,12.8493 223.6305,13.0253 C223.6305,13.0753 223.6815,13.1753 223.9825,13.4013 C224.6095,13.7773 224.8605,14.0533 224.8605,14.4563 C224.8605,17.0143 224.7855,18.8963 224.7095,20.1013 C224.6855,20.6533 224.5345,20.9543 223.4305,21.3053 C223.1795,21.3803 222.8785,21.5813 222.8785,21.8323 C222.8785,22.0833 223.1545,22.2083 223.6065,22.2083 C224.0065,22.2083 224.8105,22.1333 225.5875,22.1333 C226.1905,22.1333 226.9435,22.2083 227.7715,22.2083 C228.2235,22.2083 228.4735,22.0073 228.4735,21.8073 C228.4735,21.6063 228.2725,21.3803 227.8215,21.2053 C226.8185,20.8293 226.8425,20.5273 226.8425,20.1513 L226.8425,14.3303 C226.8425,14.0283 227.0935,13.7523 227.1445,13.7023 C227.6215,13.3763 228.3485,13.1503 229.3015,13.1503 C230.3315,13.1503 230.8325,13.5013 231.0835,13.8283 C231.3335,14.1543 231.5605,14.9073 231.5605,16.7893 C231.5605,17.8933 231.5605,18.9713 231.5355,20.2013 C231.5095,20.8293 231.3335,21.0543 230.7075,21.2803 C230.2805,21.4563 230.1545,21.6573 230.1545,21.8073 C230.1545,22.1333 230.5055,22.2083 230.8325,22.2083 C231.1335,22.2083 231.6855,22.1333 232.4135,22.1333 C233.1665,22.1333 233.9685,22.2083 234.2945,22.2083 C234.6215,22.2083 235.0225,22.0573 235.0225,21.8073 C235.0225,21.5813 234.8475,21.3313 234.2705,21.1043" id="Fill-25" fill="#FEFEFE"></path>
                <path d="M241.1728,21.3309 C239.9678,20.8789 239.8928,20.8529 239.8178,19.8249 C239.7678,19.2229 239.7678,15.2079 239.7678,13.7019 C239.7678,11.3689 239.8428,8.1829 239.8428,6.1999 C239.8428,5.4969 239.7418,5.1209 239.5418,5.1209 C239.4668,5.1209 239.2658,5.1449 239.0148,5.2219 C238.4878,5.3719 237.5598,5.6979 236.7558,6.0239 C236.5808,6.0999 236.2788,6.2749 236.2788,6.4769 C236.2788,6.6769 236.3798,6.8269 236.8818,7.0279 C237.3088,7.2039 237.6348,7.4039 237.6858,7.7059 C237.7598,8.1059 237.7598,10.4159 237.7598,13.8029 C237.7598,18.1189 237.7098,19.6749 237.6598,20.0759 C237.5838,20.5779 237.5598,20.9039 236.4038,21.3309 C235.9528,21.4799 235.7778,21.6819 235.7778,21.9329 C235.7778,22.1579 236.1048,22.2339 236.5058,22.2339 C237.0828,22.2339 237.6098,22.1339 238.5878,22.1339 C239.2398,22.1339 240.2698,22.2089 240.9718,22.2089 C241.5238,22.2089 241.6988,22.0579 241.6988,21.8569 C241.6988,21.7069 241.5738,21.4799 241.1728,21.3309" id="Fill-27" fill="#FEFEFE"></path>
                <path d="M253.9951,21.9578 C254.1451,21.9328 254.4221,21.7068 254.4221,21.2798 C254.4221,21.1808 254.2701,20.8538 254.2211,20.8538 C253.9701,20.8788 253.1171,21.0038 252.9401,21.0038 C252.8911,21.0038 252.5641,20.9298 252.5401,20.0508 C252.4891,18.9468 252.5151,13.5518 252.5151,12.4728 C252.5151,12.1968 252.3391,11.8708 252.2381,11.8708 C252.0621,11.8708 250.8581,11.9458 250.4571,11.9458 C250.0301,11.9718 249.6791,11.9458 249.2531,11.9458 C248.9261,11.9458 248.6251,12.1968 248.6251,12.3478 C248.6251,12.5728 248.8761,12.7738 249.2271,12.8998 C249.5281,12.9998 249.8051,13.1258 250.0561,13.2258 C250.2301,13.2758 250.4321,13.7278 250.4321,14.0028 C250.4321,15.2078 250.4321,18.2688 250.3311,19.0968 C250.2561,19.7998 249.7541,20.2008 249.6531,20.2758 C249.4021,20.4518 248.5741,20.8288 247.8221,20.8288 C247.4961,20.8288 246.8941,20.7528 246.4921,20.5028 C246.1661,20.2008 245.8911,19.9248 245.8651,18.5698 C245.8401,16.8138 245.8401,13.7018 245.8401,12.6238 C245.8401,12.0968 245.7651,11.8208 245.5891,11.8208 C245.4131,11.8208 243.6571,11.9458 243.1051,11.9458 C243.0041,11.9458 242.3271,12.0208 242.3271,12.3718 C242.3271,12.6238 242.5781,12.7998 242.8541,12.9488 C243.5821,13.3258 243.8071,13.8278 243.8071,14.0538 L243.8071,20.1258 C243.8071,20.7288 244.1341,21.3308 244.3851,21.5808 C244.7361,21.9828 245.5641,22.4348 246.3671,22.4348 C247.9231,22.4348 249.0771,21.6818 250.2811,20.8038 C250.3821,20.7288 250.5071,20.8788 250.5071,20.9038 C250.5321,21.2288 250.5571,21.8828 250.5821,22.0578 C250.6071,22.2338 250.7581,22.4848 250.8581,22.4848 C251.0841,22.4848 251.5351,22.4088 251.9371,22.3088 C252.3891,22.1838 253.3681,22.0328 253.9951,21.9578" id="Fill-29" fill="#FEFEFE"></path>
                <path d="M255.8281,22.2088 C256.2291,22.2088 257.0321,22.1338 257.8101,22.1338 C258.4121,22.1338 259.1651,22.2088 259.9931,22.2088 C260.4451,22.2088 260.6961,22.0078 260.6961,21.8078 C260.6961,21.6058 260.4951,21.3808 260.0431,21.2048 C259.0401,20.8288 259.0651,20.5268 259.0651,20.1508 L259.0651,14.3298 C259.0651,14.0278 259.3161,13.7528 259.3661,13.7018 C259.8431,13.3768 260.5701,13.1498 261.5241,13.1498 C262.5531,13.1498 263.0551,13.5018 263.3061,13.8278 C263.5571,14.1538 263.7821,14.9068 263.7821,16.7888 C263.7821,17.8938 263.7821,18.9718 263.7571,20.2008 C263.7311,20.8288 263.5571,21.0548 262.9291,21.2798 C262.5031,21.4558 262.3771,21.6568 262.3771,21.8078 C262.3771,22.1338 262.7281,22.2088 263.0551,22.2088 C263.3551,22.2088 263.9081,22.1338 264.6361,22.1338 C265.3881,22.1338 266.1911,22.2088 266.5171,22.2088 C266.8441,22.2088 267.2451,22.0578 267.2451,21.8078 C267.2451,21.5808 267.0691,21.3308 266.4921,21.1048 C266.0411,20.8788 265.8641,20.6528 265.8401,19.9248 C265.7901,18.7958 265.7901,17.3918 265.7651,16.1608 C265.7391,14.4308 265.4131,13.4008 265.0121,12.8238 C264.6361,12.2718 263.9821,11.6448 262.7031,11.6448 C261.1221,11.6448 259.9181,12.3968 259.1401,12.9248 C259.0651,12.9748 258.9391,12.9748 258.9651,12.8498 C258.9891,12.5988 259.0151,11.8708 259.0151,11.7448 C259.0151,11.5448 258.6631,11.4438 258.5891,11.4438 C258.5381,11.4438 258.2371,11.5448 257.9351,11.6948 C257.4331,11.9458 256.7811,12.1718 256.3051,12.3968 C256.0791,12.4978 255.8531,12.8498 255.8531,13.0248 C255.8531,13.0748 255.9031,13.1758 256.2041,13.4008 C256.8321,13.7768 257.0831,14.0538 257.0831,14.4558 C257.0831,17.0148 257.0071,18.8958 256.9331,20.1018 C256.9071,20.6528 256.7561,20.9538 255.6521,21.3058 C255.4011,21.3808 255.1001,21.5808 255.1001,21.8318 C255.1001,22.0828 255.3771,22.2088 255.8281,22.2088" id="Fill-31" fill="#FEFEFE"></path>
                <mask id="mask-2" fill="white">
                    <use xlink:href="#path-1"></use>
                </mask>
                <g id="Clip-34"></g>
                <path d="M136.542,36.431 L146.07,36.431 L146.07,35.025 L136.542,35.025 L136.542,36.431 Z M136.542,39.207 L146.07,39.207 L146.07,37.746 L136.542,37.746 L136.542,39.207 Z M134.802,40.576 L147.883,40.576 L147.883,33.638 L134.802,33.638 L134.802,40.576 Z" id="Fill-33" fill="#FEFEFE" mask="url(#mask-2)"></path>
                <path d="M147.3461,48.0321 L144.6451,48.0321 C143.8311,48.0321 143.6821,47.9021 143.6821,47.2741 L143.6821,45.4231 C145.5891,44.8311 147.6981,44.0351 149.2331,43.1101 L147.8461,41.8711 C146.8651,42.5931 145.2741,43.3511 143.6821,43.9251 L143.6821,41.1681 L141.9431,41.1681 L141.9431,47.2921 C141.9431,49.0871 142.4431,49.6041 144.4411,49.6041 L147.4571,49.6041 C149.1411,49.6041 149.6221,48.9201 149.8441,46.4401 C149.3631,46.3111 148.6411,46.0531 148.2531,45.7751 C148.1601,47.6981 148.0681,48.0321 147.3461,48.0321" id="Fill-35" fill="#FEFEFE" mask="url(#mask-2)"></path>
                <path d="M136.8374,47.6248 L136.8374,44.5718 L141.0374,44.5718 L141.0374,43.0178 L136.8374,43.0178 L136.8374,41.2238 L135.0434,41.2238 L135.0434,47.0508 C135.0434,47.7728 134.4694,48.0678 134.0624,48.2168 C134.3394,48.5688 134.5994,49.3268 134.6914,49.7528 C135.1914,49.5118 135.9494,49.3458 141.4444,48.4938 C141.3514,48.1438 141.2774,47.4768 141.2594,47.0148 L136.8374,47.6248 Z" id="Fill-36" fill="#FEFEFE" mask="url(#mask-2)"></path>
                <path d="M184.457,38.0789 L177.464,38.0789 C178.647,37.1899 179.776,36.1909 180.757,35.1369 C182.052,36.2829 183.273,37.2449 184.457,38.0789 M182.126,33.5259 L180.831,32.8059 C178.833,35.4509 175.317,37.8379 172.117,39.2069 C172.561,39.6139 173.005,40.2249 173.282,40.6689 C174.411,40.1139 175.576,39.3909 176.705,38.6149 L176.705,39.5769 L184.624,39.5769 L184.624,38.1889 C185.863,39.0579 187.048,39.7799 188.231,40.4469 C188.491,39.9459 188.99,39.3539 189.435,39.0039 C186.955,37.8019 184.309,36.2269 181.756,34.0079 C181.886,33.8589 181.996,33.6929 182.126,33.5259" id="Fill-37" fill="#FEFEFE" mask="url(#mask-2)"></path>
                <path d="M175.891,44.72 L178,44.72 L178,42.556 L175.891,42.556 L175.891,44.72 Z M179.592,44.72 L181.756,44.72 L181.756,42.556 L179.592,42.556 L179.592,44.72 Z M183.347,44.72 L185.549,44.72 L185.549,42.556 L183.347,42.556 L183.347,44.72 Z M174.208,50.03 L175.891,50.03 L175.891,46.181 L178,46.181 L178,49.864 L179.592,49.864 L179.592,46.181 L181.756,46.181 L181.756,49.864 L183.347,49.864 L183.347,46.181 L185.549,46.181 L185.549,48.272 C185.549,48.458 185.493,48.494 185.309,48.494 C185.142,48.514 184.642,48.514 184.068,48.494 C184.29,48.92 184.513,49.567 184.55,50.012 C185.512,50.012 186.178,49.993 186.658,49.716 C187.122,49.474 187.232,49.031 187.232,48.291 L187.232,41.095 L174.208,41.095 L174.208,50.03 Z" id="Fill-38" fill="#FEFEFE" mask="url(#mask-2)"></path>
                <path d="M214.02,47.698 L226.12,47.698 L226.12,35.395 L214.02,35.395 L214.02,47.698 Z M212.393,50.066 L214.02,50.066 L214.02,49.253 L226.12,49.253 L226.12,50.066 L227.822,50.066 L227.822,33.842 L212.393,33.842 L212.393,50.066 Z" id="Fill-39" fill="#FEFEFE" mask="url(#mask-2)"></path>
                <path d="M216.592,42.389 L218.331,42.389 L218.331,40.797 L216.592,40.797 L216.592,42.389 Z M215.445,43.37 L219.533,43.37 L219.533,39.817 L215.445,39.817 L215.445,43.37 Z" id="Fill-40" fill="#FEFEFE" mask="url(#mask-2)"></path>
                <path d="M223.9736,45.5711 C223.4936,45.4781 223.0856,44.9791 222.7716,44.1831 C223.6216,42.9441 224.3076,41.4821 224.7506,39.8001 L223.3816,39.5221 C223.1046,40.5931 222.7346,41.5751 222.2356,42.4631 C222.0136,41.4261 221.8276,40.1701 221.6986,38.8371 L225.3616,38.8371 L225.3616,37.5601 L224.2336,37.5601 L225.0466,36.7091 C224.6396,36.3021 223.8266,35.8011 223.1606,35.4891 L222.3646,36.2831 C223.0306,36.6171 223.8266,37.1341 224.1966,37.5601 L221.5876,37.5601 C221.5496,36.9861 221.5136,36.3761 221.4946,35.7841 L220.0706,35.7841 C220.1076,36.3761 220.1446,36.9671 220.1816,37.5601 L214.8706,37.5601 L214.8706,38.8371 L220.2926,38.8371 C220.4766,40.7981 220.7546,42.5921 221.1986,43.9991 C220.8666,44.4251 220.4956,44.8131 220.0886,45.1641 L220.0516,44.0171 C218.0536,44.3321 216.0366,44.6461 214.6866,44.8311 L214.8706,46.1261 C216.3516,45.8671 218.2206,45.5161 220.0336,45.2191 C219.5896,45.5901 219.1086,45.9231 218.6086,46.2181 C218.8856,46.4591 219.3856,47.0141 219.5706,47.2741 C220.3846,46.7561 221.1246,46.1261 221.7726,45.4231 C222.2166,46.2371 222.7716,46.7731 223.4556,46.9591 C224.5296,47.3841 225.3066,46.6631 225.5656,44.5531 C225.2696,44.3871 224.7506,44.0171 224.4736,43.7401 C224.3626,44.8861 224.1966,45.6451 223.9736,45.5711" id="Fill-41" fill="#FEFEFE" mask="url(#mask-2)"></path>
                <path d="M264.3965,45.9774 C265.1365,46.9584 266.0985,48.3454 266.5425,49.1614 L267.8935,48.3454 C267.3935,47.5514 266.3945,46.2374 265.6725,45.2564 L264.3965,45.9774 Z" id="Fill-42" fill="#FEFEFE" mask="url(#mask-2)"></path>
                <path d="M264.8593,38.0233 C264.4703,37.3373 264.1743,36.5803 263.9163,35.7653 L266.0623,35.7653 C265.7473,36.5433 265.3213,37.3563 264.8593,38.0233 L264.8593,38.0233 Z M259.9013,40.2803 C260.9743,38.9293 261.8623,37.2453 262.3803,35.2103 C262.8803,37.1903 263.5833,38.9293 264.6003,40.2803 L259.9013,40.2803 Z M266.9683,34.4893 L266.6903,34.5823 L263.5833,34.5823 C263.4903,34.1933 263.3973,33.7863 263.3233,33.3773 L262.0283,33.6203 C262.0843,33.9523 262.1583,34.2673 262.2133,34.5823 L261.6403,34.3603 L261.4183,34.4153 L259.7153,34.4153 C259.8643,34.0633 260.0113,33.7123 260.1233,33.3423 L258.8463,33.0453 C258.2723,34.9153 257.2553,36.6533 255.9603,37.7823 C256.2933,37.9853 256.8113,38.4293 257.0333,38.6513 C257.8473,37.8373 258.6063,36.7463 259.2343,35.5243 L260.9553,35.5243 C260.8073,36.0053 260.6233,36.4683 260.4193,36.9303 C260.0673,36.6903 259.6783,36.4493 259.3273,36.2653 L258.7543,37.0423 C259.1423,37.2643 259.6053,37.5603 259.9753,37.8563 C259.7713,38.2083 259.5673,38.5783 259.3273,38.8923 C258.9573,38.5953 258.4953,38.2633 258.1063,38.0233 L257.4393,38.7443 C257.8473,39.0213 258.3093,39.3743 258.6983,39.7063 C258.0693,40.4473 257.3473,41.0393 256.6073,41.4453 C256.9223,41.7043 257.2733,42.1683 257.4773,42.4823 C258.1613,42.0373 258.8463,41.4643 259.4573,40.7973 L259.4573,41.6673 L265.1923,41.6673 L265.1923,41.0023 C265.7653,41.6303 266.4133,42.1293 267.1533,42.5553 C267.3763,42.1483 267.8003,41.5933 268.1153,41.3163 C267.1163,40.8353 266.3023,40.1143 265.6173,39.2253 C266.5053,38.1333 267.3763,36.5613 267.9303,35.0633 L266.9683,34.4893 Z" id="Fill-43" fill="#FEFEFE" mask="url(#mask-2)"></path>
                <path d="M266.9687,43.1659 L257.6987,43.1659 L257.6987,44.5719 L261.4917,44.5719 L261.4917,48.2719 C261.4917,48.4579 261.4547,48.5139 261.2147,48.5319 C260.9917,48.5499 260.3257,48.5499 259.5497,48.5139 C259.7527,48.9199 259.9927,49.5499 260.0677,49.9929 C261.1217,49.9929 261.8997,49.9759 262.4167,49.7339 C262.9527,49.4939 263.0827,49.0679 263.0827,48.3099 L263.0827,44.5719 L266.9687,44.5719 L266.9687,43.1659 Z" id="Fill-44" fill="#FEFEFE" mask="url(#mask-2)"></path>
                <path d="M255.331,39.1522 C255.867,37.6892 256.478,35.8572 256.977,34.3402 L255.867,33.7132 L255.627,33.7682 L251.686,33.7682 L251.686,49.9562 L253.167,49.9562 L253.167,35.3212 L255.071,35.3212 C254.739,36.5432 254.295,38.0962 253.869,39.3182 C255.017,40.7062 255.257,41.9462 255.257,42.8712 C255.257,43.4242 255.184,43.8882 254.924,44.0732 C254.775,44.1832 254.628,44.2202 254.424,44.2392 C254.166,44.2582 253.869,44.2392 253.518,44.2202 C253.74,44.6282 253.869,45.2942 253.888,45.7002 C254.295,45.7192 254.739,45.7192 255.054,45.6822 C255.441,45.6092 255.757,45.4982 256.016,45.3122 C256.534,44.9232 256.756,44.1282 256.756,43.0372 C256.756,41.9642 256.478,40.6312 255.331,39.1522" id="Fill-45" fill="#FEFEFE" mask="url(#mask-2)"></path>
                <path d="M258.4209,45.368 C257.9209,46.386 257.1819,47.552 256.4599,48.365 C256.8479,48.55 257.4589,48.938 257.7549,49.197 C258.4399,48.328 259.2899,46.977 259.8819,45.831 L258.4209,45.368 Z" id="Fill-46" fill="#FEFEFE" mask="url(#mask-2)"></path>
            </g>
        </g>
    </g>
</svg>