<?xml version="1.0" encoding="UTF-8"?>
<svg width="212px" height="44px" viewBox="0 0 212 44" version="1.1" xmlns="http://www.w3.org/2000/svg" xmlns:xlink="http://www.w3.org/1999/xlink">
    <!-- Generator: Sketch 45.2 (43514) - http://www.bohemiancoding.com/sketch -->
    <title>nav/icon-logo</title>
    <desc>Created with Sketch.</desc>
    <defs></defs>
    <g id="svg" stroke="none" stroke-width="1" fill-rule="evenodd">
        <g id="icon-logo">
            <g id="Page-1">
                <path d="M3.35101859,21.5675259 C3.21704089,17.6593037 5.02258736,11.3932481 11.3077175,6.13769259 C17.5928476,0.815248148 23.8109888,0.882137037 23.8109888,0.882137037 C16.4556134,0.275359259 10.1042825,4.04900741 6.09204461,7.75417407 C2.14758364,11.4609333 -4.27152416,22.3757667 4.0863197,33.5613407 C12.4441636,44.7453222 23.8109888,42.7243222 23.8109888,42.7243222 C21.9384535,42.522063 15.453145,41.5792481 10.1704833,36.5251556 C4.88860967,31.4049704 3.41721933,25.4749519 3.35101859,21.5675259 M85.4352119,10.1128037 C77.077368,-1.13965926 65.7105428,0.949025926 65.7105428,0.949025926 C67.58229,1.15128519 74.0683866,2.0948963 79.3502602,7.14819259 C84.6329219,12.2014889 86.1035242,18.1983963 86.2375019,22.0389333 C86.3706914,25.9471556 84.5659331,32.2132111 78.280803,37.5364519 C71.9948848,42.8588963 65.7775316,42.7912111 65.7775316,42.7912111 C73.132119,43.3979889 79.4842379,39.625137 83.4286989,35.9191741 C87.373948,32.2801 93.7930558,21.2975815 85.4352119,10.1128037" id="Fill-1"></path>
                <path d="M44.8272818,2.89963333 C25.8560401,2.89963333 10.4761888,11.3762074 10.4761888,21.8307815 C10.4761888,32.2869481 25.8560401,40.7635222 44.8272818,40.7635222 C63.7993115,40.7635222 79.1783747,32.2869481 79.1783747,21.8307815 C79.1783747,11.3762074 63.7993115,2.89963333 44.8272818,2.89963333 M44.8272818,4.05107778 C63.1341517,4.05107778 76.8597725,12.0275778 76.8597725,21.8307815 C76.8597725,31.6355778 63.1341517,39.6120778 44.8272818,39.6120778 C26.5212,39.6120778 12.764055,31.6355778 12.764055,21.8307815 C12.764055,12.0275778 26.5212,4.05107778 44.8272818,4.05107778" id="Fill-4"></path>
                <path d="M23.2417413,22.4229074 L23.2417413,27.3957778 C23.2567152,29.5210926 23.2031242,29.7145926 25.2671688,29.8515556 L25.2096372,30.694037 C23.9455182,30.6629815 21.6064253,30.1302593 18.2372803,30.3834815 L18.2167896,29.7145926 C18.7259048,29.6453148 19.4478082,29.7257407 19.7929978,29.0958704 C19.8584104,28.2788704 20.0696223,19.7967222 20.1066632,15.5166296 C19.597548,15.1662593 19.1767004,15.2060741 18.7503361,15.2403148 L18.7503361,14.3771296 C19.9900238,14.4065926 24.1874662,13.982963 25.5296074,13.9519074 L25.5217264,14.6128333 C23.0455033,14.8174815 23.2417413,15.3947963 23.2417413,17.8760556 L23.2417413,21.5485741 L24.0645219,21.5334444 C24.0645219,21.5334444 28.0412952,16.4514815 29.3093546,14.9448889 C29.1903509,14.2489259 29.0563732,14.3253704 28.1973398,14.2664444 L28.1973398,13.6134815 C29.221087,13.6405556 34.3303658,13.2384259 35.2272283,13.2073704 L35.2146186,14.0442778 C33.0560015,14.19 31.5333844,14.276 30.5443138,15.3223333 L26.7811167,19.9368704 L30.12189,24.9145185 C30.4300387,25.3031111 32.3648342,28.7542593 33.5769383,29.656463 C34.0939346,30.0554074 35.2823955,30.0179815 35.9042097,30.0769074 L35.9120907,31.0874074 C34.5455182,31.0635185 28.4723881,30.909037 27.1609829,30.9321296 L27.1609829,30.0769074 C27.6243881,30.0769074 28.312403,30.1477778 28.312403,29.2822037 C28.312403,28.7216111 24.0605814,22.4229074 24.0605814,22.4229074 L23.2417413,22.4229074 Z" id="Fill-6"></path>
                <path d="M44.6137056,34.272513 L36.6176015,14.8691611 C34.9917428,11.5103833 35.3069844,10.7602722 32.4296164,10.7602722 L32.4107019,9.7537537 C35.1966498,9.7537537 41.5716238,9.42488333 43.7499435,9.3898463 L43.7980178,10.348587 C41.9105086,10.348587 40.7496312,10.3931796 41.543252,12.1665315 C41.7749546,12.7072167 47.8220773,26.9274759 47.8220773,26.9274759 C47.8220773,26.9274759 53.1914305,13.9996056 53.6051851,12.5391981 C54.1347911,10.6559574 52.9400253,10.7873463 51.5576907,10.67905 L51.4678468,9.52680926 C52.9234751,9.55467963 58.7231331,9.84851296 60.2930364,9.80232778 L60.3261368,10.9696981 C57.4984193,10.7236426 56.8001591,11.3789944 55.0789398,15.1542352 L46.8377353,34.2541981 L44.6137056,34.272513 Z" id="Fill-8"></path>
                <path d="M63.4111703,26.1742593 C63.4111703,27.0756667 63.4237799,28.4086667 63.8201963,29.161963 C64.2158245,29.9168519 65.1316015,30.0593889 65.4011331,30.0641667 C67.2153487,30.1238889 68.3809546,29.0130556 68.4376981,26.5039259 C68.4873487,24.545037 67.7615048,23.2606111 66.2680476,22.5208519 C65.0630364,21.9212407 63.4261442,22.3815 63.4261442,22.3815 L63.4111703,26.1742593 Z M63.3717651,21.1488333 L63.7989175,21.443463 C63.9912149,21.5055741 65.4673338,21.7253519 66.4847762,21.120963 C67.5841814,20.4011111 67.7055494,19.406537 67.6574751,18.3251667 C67.5692074,16.5295185 66.0056089,15.0691111 64.8667985,14.8079259 C64.52949,14.7243148 63.6113487,14.5316111 63.4111703,15.0197407 C63.3567911,15.1797963 63.3567911,15.9147778 63.3567911,16.1305741 L63.3717651,21.1488333 Z M59.9994677,18.8347963 C59.9994677,17.9899259 59.8907093,15.9625556 59.6487613,15.251463 C59.3650439,14.326963 58.4807911,14.5316111 57.6446126,14.5316111 L57.5925978,13.7998148 C58.8519881,13.8276852 60.1807316,13.7432778 61.4464268,13.7647778 C62.4875123,13.7432778 63.5262335,13.7830926 64.5752,13.8276852 C67.3193784,13.9423519 70.7649695,15.2960556 70.8106796,18.146 C70.8414156,20.3238704 69.5260699,20.7164444 68.1366424,21.5684815 L68.1287613,21.7102222 C69.0902483,21.9682222 69.7175792,22.1999444 70.6388729,23.0527778 C71.0983375,23.4740185 71.8990513,24.7265926 71.8202409,26.2507037 C71.715423,28.0511296 70.9186498,29.2009815 69.4693264,30.0944259 C68.103542,30.9289444 67.0608803,31.0897963 65.5469323,31.0897963 C64.3955123,31.0682963 63.273252,31.1216481 62.1178914,31.0897963 C60.6504416,31.1216481 59.0986647,31.1351852 57.609148,31.2976296 L57.5925978,30.6255556 C58.4311405,30.6255556 59.1341294,30.5459259 59.7409695,29.785463 C60.1011331,29.3188333 59.9994677,27.0987593 59.9994677,26.2507037 L59.9994677,18.8347963 Z" id="Fill-10"></path>
                <path d="M105.777203,5.31655185 C106.053828,5.31655185 107.260415,5.41608889 107.754556,5.41608889 C108.703433,5.41608889 109.672801,5.37627407 109.890318,5.37627407 C110.047939,5.37627407 110.423865,5.47581111 110.423865,5.69638519 C110.423865,5.93527407 110.088132,6.11603333 109.929723,6.15584815 C109.039954,6.37562593 108.881545,6.63521852 108.881545,6.95532963 C108.881545,7.21492222 108.783032,10.3515333 108.84214,10.8109963 C108.861842,10.9105333 108.921738,10.9710519 109.059657,10.9710519 C109.139255,10.9710519 109.296876,10.931237 109.534095,10.710663 C110.819493,9.61257037 113.074259,7.4339037 113.627508,6.77536667 C113.785917,6.5754963 113.707106,6.35571852 113.034065,6.21557037 C112.658928,6.13514444 112.461114,5.97588519 112.461114,5.75610741 C112.461114,5.65577407 112.599032,5.41608889 112.955255,5.41608889 L114.023136,5.41608889 C115.169828,5.39618148 116.09979,5.27594074 116.870556,5.27594074 C117.463999,5.27594074 117.602705,5.4567 117.602705,5.65577407 C117.602705,5.79592222 117.404891,5.99658889 116.969857,6.07542222 C116.09979,6.23468148 115.328236,6.61531111 114.53698,7.25473704 C113.726809,7.89416296 112.974958,8.53358889 110.937709,10.4717741 C110.879389,10.5107926 110.879389,10.6716444 110.937709,10.7504778 C112.599032,12.6488481 114.834095,14.9071444 115.645054,15.6859222 C116.41582,16.4256815 116.909961,16.6653667 117.780816,16.945663 C118.21585,17.0850148 118.353768,17.1845519 118.353768,17.424237 C118.353768,17.5237741 118.136251,17.7642556 117.780816,17.7642556 C116.850854,17.7642556 115.071314,17.6241074 114.319463,17.6241074 L113.311478,17.6241074 C113.034065,17.6241074 112.837039,17.4441444 112.837039,17.2649778 C112.837039,17.1049222 112.995448,16.945663 113.350883,16.8445333 C113.825322,16.7051815 113.90492,16.4846074 113.627508,16.1660889 C112.896147,15.3267926 110.503463,12.8089037 109.553798,11.850163 C109.337069,11.6502926 109.139255,11.570663 109.059657,11.570663 C108.921738,11.570663 108.84214,11.7307185 108.84214,11.9497 C108.84214,12.8686259 108.822437,14.7470889 108.901248,15.7663481 C108.980846,16.6454593 109.356772,16.7250889 110.088132,16.8843481 C110.641381,17.0053852 110.760385,17.1845519 110.760385,17.3438111 C110.760385,17.5436815 110.464058,17.7045333 110.226839,17.7045333 C109.988831,17.7045333 108.84214,17.6241074 108.228995,17.6241074 C107.29982,17.6241074 106.014422,17.7435519 105.658199,17.7435519 C105.42098,17.7435519 105.085248,17.6241074 105.085248,17.4051259 C105.085248,17.1646444 105.282274,17.0452 105.618794,16.9647741 C106.666972,16.7051815 106.943597,16.4846074 107.003493,15.6461074 C107.042898,14.9668667 107.082303,14.1880889 107.082303,10.8109963 C107.082303,7.73331111 107.082303,7.45460741 107.042898,7.05486667 C107.003493,6.69414444 106.983002,6.39553333 105.895419,6.13514444 C105.460385,6.03560741 105.242868,5.85564444 105.242868,5.67568148 C105.242868,5.51642222 105.480876,5.31655185 105.777203,5.31655185" id="Fill-12"></path>
                <path d="M118.969435,5.31655185 C119.621197,5.31655185 120.413242,5.41608889 121.143814,5.41608889 C121.85626,5.41608889 122.489108,5.37627407 123.022654,5.37627407 C123.399368,5.37627407 123.616097,5.55623704 123.616097,5.75610741 C123.616097,5.91616296 123.378877,6.09612593 123.043145,6.19566296 C122.528513,6.33501481 122.291294,6.49507037 122.389807,7.09388519 C122.50881,7.79382963 124.842387,13.9476074 125.238015,14.4675889 C125.316825,14.5671259 125.415338,14.6069407 125.494937,14.4675889 C126.265703,12.629737 127.789108,8.91342222 128.224141,7.61466296 C128.560662,6.63521852 128.499978,6.49507037 127.452587,6.15584815 C127.096364,6.03560741 126.938743,5.83573704 126.938743,5.71629259 C126.938743,5.47581111 127.254773,5.37627407 127.610996,5.37627407 C128.04603,5.37627407 128.499978,5.41608889 129.192721,5.41608889 C129.943784,5.41608889 130.300796,5.33645926 130.953346,5.33645926 C131.387591,5.33645926 131.605896,5.49651481 131.605896,5.67568148 C131.605896,5.89545926 131.328483,6.03560741 130.913152,6.13514444 C130.122684,6.33501481 129.805866,6.77536667 129.370833,7.61466296 C128.77739,8.77327407 127.47229,11.8095519 126.186892,14.9668667 C125.751859,16.0458481 125.396424,17.2442741 125.27742,17.504663 C125.178907,17.7435519 124.921197,18.0238481 124.683978,18.0238481 C124.546059,18.0238481 124.367948,17.8438852 124.289138,17.6049963 C124.189836,17.3047926 123.833613,16.085663 123.458476,15.0871074 C123.062848,14.027237 120.650461,7.87425556 120.294238,7.1344963 C120.036528,6.61531111 119.918312,6.45525556 118.870134,6.11603333 C118.514699,5.99658889 118.336587,5.83573704 118.336587,5.65577407 C118.336587,5.4567 118.652617,5.31655185 118.969435,5.31655185" id="Fill-14"></path>
                <path d="M137.025451,6.07550185 C136.788232,6.07550185 136.472202,6.13522407 136.392604,6.17583519 C136.313793,6.21565 136.234195,6.29527963 136.214492,6.49515 C136.155384,7.83372407 136.135682,10.0912241 136.214492,10.4909648 C136.234195,10.6112056 136.491117,10.6916315 136.748827,10.6916315 C137.777303,10.6916315 138.64737,10.5108722 138.923994,10.3715204 C139.121808,10.2512796 139.813764,9.67237222 139.813764,8.41342778 C139.813764,7.21500185 139.042998,6.07550185 137.025451,6.07550185 M137.381674,11.4505019 C137.084559,11.4505019 136.551013,11.5102241 136.451712,11.5508352 C136.412306,11.5699463 136.253897,11.7507056 136.19479,12.0302056 C136.135682,12.42915 136.135682,15.1270019 136.274388,15.7664278 C136.432009,16.484687 137.559786,16.9648537 137.915221,16.9648537 C138.904291,16.9648537 139.931979,16.1860759 140.129793,15.7863352 C140.348098,15.3069648 140.545912,14.7471685 140.545912,14.12765 C140.545912,12.2499833 139.0627,11.4505019 137.381674,11.4505019 M141.020351,9.91126111 C140.861942,10.1111315 140.28899,10.4710574 139.893362,10.6319093 C139.853169,10.6510204 139.913065,10.8508907 140.011578,10.8915019 C141.415979,11.3310574 142.582373,12.42915 142.582373,13.9277796 C142.582373,15.8858722 141.296975,16.844613 140.150284,17.2849648 C139.339325,17.6050759 138.330552,17.7436315 137.460485,17.7436315 C136.214492,17.7436315 135.167102,17.6647981 134.375845,17.6440944 C133.702804,17.624187 133.34737,17.6847056 132.971444,17.6847056 C132.694819,17.6847056 132.318894,17.5644648 132.318894,17.3438907 C132.318894,17.0444833 132.556901,16.9449463 133.069957,16.8255019 C133.862001,16.6455389 134.277332,16.6057241 134.375845,15.5267426 C134.415251,15.1668167 134.454656,15.0863907 134.454656,10.6916315 C134.454656,9.6118537 134.475146,7.75329815 134.415251,7.15448333 C134.355355,6.47524259 134.178031,6.29527963 133.090448,6.15592778 C132.872143,6.13522407 132.596306,5.97596481 132.596306,5.73627963 C132.596306,5.53640926 132.872143,5.41616852 133.367072,5.41616852 L134.375845,5.41616852 C135.087503,5.41616852 136.313793,5.27602037 137.638596,5.27602037 C139.082403,5.27602037 140.050983,5.6558537 140.565615,6.07550185 C141.256782,6.61539074 141.633496,7.43398333 141.633496,8.25337222 C141.633496,8.99313148 141.396277,9.51231667 141.020351,9.91126111" id="Fill-16"></path>
                <path d="M153.105297,5.31655185 C153.381921,5.31655185 154.588509,5.41608889 155.08265,5.41608889 C156.031527,5.41608889 157.000107,5.37627407 157.218412,5.37627407 C157.376033,5.37627407 157.752746,5.47581111 157.752746,5.69638519 C157.752746,5.93527407 157.416226,6.11603333 157.257817,6.15584815 C156.368048,6.37562593 156.209639,6.63521852 156.209639,6.95532963 C156.209639,7.21492222 156.111126,10.3515333 156.170233,10.8109963 C156.189936,10.9105333 156.249044,10.9710519 156.38775,10.9710519 C156.467349,10.9710519 156.62497,10.931237 156.862189,10.710663 C158.147587,9.61257037 160.402352,7.4339037 160.955601,6.77536667 C161.11401,6.5754963 161.0352,6.35571852 160.362159,6.21557037 C159.987022,6.13514444 159.789207,5.97588519 159.789207,5.75610741 C159.789207,5.65577407 159.927126,5.41608889 160.283349,5.41608889 L161.35123,5.41608889 C162.497921,5.39618148 163.427884,5.27594074 164.19865,5.27594074 C164.791304,5.27594074 164.930799,5.4567 164.930799,5.65577407 C164.930799,5.79592222 164.732984,5.99658889 164.297951,6.07542222 C163.427884,6.23468148 162.655542,6.61531111 161.865074,7.25473704 C161.054114,7.89416296 160.303051,8.53358889 158.265802,10.4717741 C158.207483,10.5107926 158.207483,10.6716444 158.265802,10.7504778 C159.927126,12.6488481 162.161401,14.9071444 162.973148,15.6859222 C163.743914,16.4256815 164.238055,16.6653667 165.10891,16.945663 C165.543155,17.0850148 165.681862,17.1845519 165.681862,17.424237 C165.681862,17.5237741 165.464345,17.7642556 165.10891,17.7642556 C164.178947,17.7642556 162.399408,17.6241074 161.647557,17.6241074 L160.639572,17.6241074 C160.362159,17.6241074 160.164345,17.4441444 160.164345,17.2649778 C160.164345,17.1049222 160.321966,16.945663 160.678189,16.8445333 C161.153416,16.7051815 161.233014,16.4846074 160.955601,16.1660889 C160.223453,15.3267926 157.830769,12.8089037 156.881891,11.850163 C156.664375,11.6502926 156.467349,11.570663 156.38775,11.570663 C156.249044,11.570663 156.170233,11.7307185 156.170233,11.9497 C156.170233,12.8686259 156.149743,14.7470889 156.229341,15.7663481 C156.30894,16.6454593 156.684077,16.7250889 157.416226,16.8843481 C157.969475,17.0053852 158.087691,17.1845519 158.087691,17.3438111 C158.087691,17.5436815 157.791364,17.7045333 157.554932,17.7045333 C157.316925,17.7045333 156.170233,17.6241074 155.5563,17.6241074 C154.627914,17.6241074 153.342516,17.7435519 152.986293,17.7435519 C152.749074,17.7435519 152.412553,17.6241074 152.412553,17.4051259 C152.412553,17.1646444 152.610367,17.0452 152.946888,16.9647741 C153.994278,16.7051815 154.271691,16.4846074 154.331587,15.6461074 C154.370992,14.9668667 154.409609,14.1880889 154.409609,10.8109963 C154.409609,7.73331111 154.409609,7.45460741 154.370992,7.05486667 C154.331587,6.69414444 154.311096,6.39553333 153.222724,6.13514444 C152.788479,6.03560741 152.570174,5.85564444 152.570174,5.67568148 C152.570174,5.51642222 152.808181,5.31655185 153.105297,5.31655185" id="Fill-18"></path>
                <path d="M171.359521,16.145863 C171.43912,16.0861407 171.83396,15.7660296 171.893856,15.2062333 C171.972666,14.5469 171.972666,12.1102333 171.972666,11.1506963 C171.972666,10.9309185 171.814257,10.5709926 171.675551,10.5311778 C171.477737,10.4515481 171.26022,10.3520111 171.023001,10.2715852 C170.746376,10.1712519 170.548562,10.0119926 170.548562,9.83202963 C170.548562,9.71178889 170.785781,9.51191852 171.043491,9.51191852 C171.378436,9.51191852 171.655848,9.53182593 171.992369,9.51191852 C172.308399,9.51191852 173.257276,9.4521963 173.39677,9.4521963 C173.475581,9.4521963 173.613499,9.71178889 173.613499,9.93156667 C173.613499,10.7907704 173.593796,15.0867889 173.63399,15.9659 C173.653692,16.6650481 173.909826,16.7247704 173.950019,16.7247704 C174.088726,16.7247704 174.76019,16.6252333 174.958004,16.6053259 C174.99741,16.6053259 175.117201,16.8649185 175.117201,16.9453444 C175.117201,17.285363 174.898897,17.4645296 174.780681,17.4852333 C174.28654,17.5441593 173.514198,17.6644 173.158763,17.763937 C172.842733,17.844363 172.48651,17.9040852 172.308399,17.9040852 C172.229588,17.9040852 172.110584,17.7042148 172.09167,17.5640667 C172.071179,17.4239185 172.051477,16.9047333 172.031774,16.645937 C172.031774,16.6252333 171.933261,16.5049926 171.853662,16.5655111 C170.904785,17.2646593 169.995313,17.8642704 168.769023,17.8642704 C168.136175,17.8642704 167.483625,17.5043444 167.206213,17.1850296 C167.008399,16.9851593 166.751477,16.5049926 166.751477,16.0256222 L166.751477,11.1905111 C166.751477,11.0113444 166.574153,10.6116037 166.000413,10.3114 C165.782897,10.1919556 165.585083,10.0526037 165.585083,9.85193704 C165.585083,9.57243704 166.119417,9.51191852 166.198228,9.51191852 C166.633261,9.51191852 168.017172,9.41238148 168.156666,9.41238148 C168.293796,9.41238148 168.353692,9.63136296 168.353692,10.0526037 C168.353692,10.9110111 168.353692,13.3882889 168.373395,14.7865852 C168.393097,15.8655667 168.610614,16.0861407 168.867536,16.3258259 C169.184354,16.5256963 169.659581,16.5854185 169.915714,16.5854185 C170.509157,16.5854185 171.161707,16.2860111 171.359521,16.145863" id="Fill-20"></path>
                <path d="M176.600729,9.87192407 C176.976654,9.69196111 177.490498,9.51199815 177.886126,9.31292407 C178.123346,9.19347963 178.360565,9.1130537 178.39997,9.1130537 C178.459078,9.1130537 178.736491,9.19347963 178.736491,9.35273889 C178.736491,9.45227593 178.716788,10.0319796 178.696297,10.23185 C178.676595,10.331387 178.775896,10.331387 178.835004,10.2907759 C179.448149,9.87192407 180.397026,9.27231296 181.643019,9.27231296 C182.651792,9.27231296 183.165636,9.77238704 183.462751,10.2119426 C183.778781,10.6714056 184.036491,11.4899981 184.056193,12.8691833 C184.075108,13.8478315 184.075108,14.9666278 184.114513,15.8656463 C184.135004,16.4461463 184.272922,16.625313 184.629145,16.8052759 C185.084669,16.9852389 185.221799,17.1851093 185.221799,17.3642759 C185.221799,17.5641463 184.90577,17.6851833 184.648848,17.6851833 C184.391926,17.6851833 183.759078,17.6238685 183.165636,17.6238685 C182.591896,17.6238685 182.157651,17.6851833 181.920431,17.6851833 C181.662721,17.6851833 181.385309,17.6238685 181.385309,17.3642759 C181.385309,17.2448315 181.48461,17.0855722 181.82113,16.9454241 C182.315271,16.7646648 182.453978,16.5854981 182.47368,16.0862204 C182.493383,15.1067759 182.493383,14.2475722 182.493383,13.3684611 C182.493383,11.8698315 182.315271,11.2710167 182.118245,11.0114241 C181.920431,10.7510352 181.524803,10.4715352 180.713844,10.4715352 C179.962781,10.4715352 179.389041,10.6514981 179.013115,10.9110907 C178.97371,10.9509056 178.775896,11.1706833 178.775896,11.4103685 L178.775896,16.0456093 C178.775896,16.345813 178.756193,16.5854981 179.546662,16.8849056 C179.902097,17.0250537 180.061294,17.2050167 180.061294,17.3642759 C180.061294,17.5235352 179.864268,17.6851833 179.507257,17.6851833 C178.854706,17.6851833 178.261264,17.6238685 177.786825,17.6238685 C177.17368,17.6238685 176.540833,17.6851833 176.224803,17.6851833 C175.86858,17.6851833 175.651851,17.58485 175.651851,17.3849796 C175.651851,17.1851093 175.889071,17.0250537 176.086885,16.9645352 C176.956164,16.6850352 177.075167,16.4461463 177.09487,16.0057944 C177.153978,15.0470537 177.213086,13.5484241 177.213086,11.5107019 C177.213086,11.1905907 177.015271,10.970813 176.52113,10.6714056 C176.284699,10.4906463 176.244506,10.411813 176.244506,10.3712019 C176.244506,10.23185 176.422617,9.95235 176.600729,9.87192407" id="Fill-22"></path>
                <path d="M186.588293,4.79712778 C187.221929,4.53673889 187.953289,4.27794259 188.36862,4.15690556 C188.566434,4.09718333 188.724843,4.07807222 188.783951,4.07807222 C188.941572,4.07807222 189.02117,4.37747963 189.02117,4.93727593 C189.02117,6.51473889 188.962062,9.05253519 188.962062,10.9110907 C188.962062,12.110313 188.962062,15.3066463 189.00068,15.786813 C189.060575,16.6054056 189.119683,16.625313 190.069349,16.9852389 C190.385378,17.1046833 190.483891,17.2854426 190.483891,17.404887 C190.483891,17.5641463 190.345185,17.6851833 189.91094,17.6851833 C189.357691,17.6851833 188.545943,17.6238685 188.0321,17.6238685 C187.261334,17.6238685 186.846003,17.7042944 186.391267,17.7042944 C186.075237,17.7042944 185.817527,17.6445722 185.817527,17.4646093 C185.817527,17.2647389 185.955445,17.1046833 186.31088,16.9852389 C187.221929,16.6460167 187.240843,16.3856278 187.300739,15.9866833 C187.340144,15.6657759 187.379549,14.4275352 187.379549,10.9907204 C187.379549,8.29366481 187.379549,6.45501667 187.32123,6.13570185 C187.281036,5.89601667 187.024114,5.73675741 186.687594,5.59581296 C186.291966,5.4365537 186.212367,5.31631296 186.212367,5.1570537 C186.212367,4.99699815 186.450375,4.85685 186.588293,4.79712778" id="Fill-24"></path>
                <path d="M196.752787,16.145863 C196.832385,16.0861407 197.228013,15.7660296 197.287121,15.2062333 C197.365932,14.5469 197.365932,12.1102333 197.365932,11.1506963 C197.365932,10.9309185 197.207523,10.5709926 197.069604,10.5311778 C196.87179,10.4515481 196.654274,10.3520111 196.417054,10.2715852 C196.14043,10.1712519 195.942616,10.0119926 195.942616,9.83202963 C195.942616,9.71178889 196.179047,9.51191852 196.437545,9.51191852 C196.772489,9.51191852 197.049902,9.53182593 197.386422,9.51191852 C197.702452,9.51191852 198.651329,9.4521963 198.790036,9.4521963 C198.869634,9.4521963 199.007552,9.71178889 199.007552,9.93156667 C199.007552,10.7907704 198.98785,15.0867889 199.028043,15.9659 C199.046958,16.6650481 199.30388,16.7247704 199.343285,16.7247704 C199.482779,16.7247704 200.154244,16.6252333 200.352058,16.6053259 C200.391463,16.6053259 200.511255,16.8649185 200.511255,16.9453444 C200.511255,17.285363 200.29295,17.4645296 200.174735,17.4852333 C199.680593,17.5441593 198.908251,17.6644 198.552816,17.763937 C198.235999,17.844363 197.880564,17.9040852 197.702452,17.9040852 C197.622854,17.9040852 197.504638,17.7042148 197.484935,17.5640667 C197.465233,17.4239185 197.44553,16.9047333 197.425828,16.645937 C197.425828,16.6252333 197.327314,16.5049926 197.247716,16.5655111 C196.298839,17.2646593 195.389367,17.8642704 194.163077,17.8642704 C193.530229,17.8642704 192.877679,17.5043444 192.600266,17.1850296 C192.402452,16.9851593 192.14553,16.5049926 192.14553,16.0256222 L192.14553,11.1905111 C192.14553,11.0113444 191.968207,10.6116037 191.394467,10.3114 C191.17695,10.1919556 190.979136,10.0526037 190.979136,9.85193704 C190.979136,9.57243704 191.512683,9.51191852 191.592281,9.51191852 C192.027314,9.51191852 193.411225,9.41238148 193.549932,9.41238148 C193.68785,9.41238148 193.746958,9.63136296 193.746958,10.0526037 C193.746958,10.9110111 193.746958,13.3882889 193.767448,14.7865852 C193.787151,15.8655667 194.004668,16.0861407 194.26159,16.3258259 C194.578407,16.5256963 195.052846,16.5854185 195.309768,16.5854185 C195.902422,16.5854185 196.554972,16.2860111 196.752787,16.145863" id="Fill-26"></path>
                <path d="M201.994782,9.87192407 C202.370708,9.69196111 202.884552,9.51199815 203.28018,9.31292407 C203.518187,9.19347963 203.754619,9.1130537 203.794812,9.1130537 C203.853132,9.1130537 204.130544,9.19347963 204.130544,9.35273889 C204.130544,9.45227593 204.110842,10.0319796 204.091139,10.23185 C204.071436,10.331387 204.170738,10.331387 204.229057,10.2907759 C204.842202,9.87192407 205.79108,9.27231296 207.037072,9.27231296 C208.045845,9.27231296 208.560477,9.77238704 208.856804,10.2119426 C209.172834,10.6714056 209.430544,11.4899981 209.450247,12.8691833 C209.469949,13.8478315 209.469949,14.9666278 209.509355,15.8656463 C209.529057,16.4461463 209.667764,16.625313 210.023987,16.8052759 C210.478723,16.9852389 210.616641,17.1851093 210.616641,17.3642759 C210.616641,17.5641463 210.300611,17.6851833 210.043689,17.6851833 C209.786767,17.6851833 209.153132,17.6238685 208.560477,17.6238685 C207.986738,17.6238685 207.551704,17.6851833 207.314485,17.6851833 C207.057563,17.6851833 206.78015,17.6238685 206.78015,17.3642759 C206.78015,17.2448315 206.879451,17.0855722 207.215184,16.9454241 C207.710113,16.7646648 207.848031,16.5854981 207.867734,16.0862204 C207.888225,15.1067759 207.888225,14.2475722 207.888225,13.3684611 C207.888225,11.8698315 207.710113,11.2710167 207.512299,11.0114241 C207.314485,10.7510352 206.918857,10.4715352 206.108686,10.4715352 C205.356834,10.4715352 204.783094,10.6514981 204.407169,10.9110907 C204.368552,10.9509056 204.170738,11.1706833 204.170738,11.4103685 L204.170738,16.0456093 C204.170738,16.345813 204.150247,16.5854981 204.940715,16.8849056 C205.296938,17.0250537 205.456135,17.2050167 205.456135,17.3642759 C205.456135,17.5235352 205.258321,17.6851833 204.902098,17.6851833 C204.24876,17.6851833 203.655317,17.6238685 203.181667,17.6238685 C202.568522,17.6238685 201.935674,17.6851833 201.618857,17.6851833 C201.263422,17.6851833 201.045905,17.58485 201.045905,17.3849796 C201.045905,17.1851093 201.283124,17.0250537 201.480938,16.9645352 C202.350217,16.6850352 202.470009,16.4461463 202.489712,16.0057944 C202.548031,15.0470537 202.607927,13.5484241 202.607927,11.5107019 C202.607927,11.1905907 202.410113,10.970813 201.915184,10.6714056 C201.678752,10.4906463 201.639347,10.411813 201.639347,10.3712019 C201.639347,10.23185 201.816671,9.95235 201.994782,9.87192407" id="Fill-28"></path>
                <path d="M116.124143,38.2477833 C116.693154,38.2477833 116.765659,37.9818204 116.838953,36.4505426 C117.144738,36.6711167 117.713749,36.8773574 118.092827,36.9800796 C117.917868,38.9548944 117.53879,39.4995611 116.211622,39.4995611 L113.8347,39.4995611 C112.260068,39.4995611 111.866016,39.0870796 111.866016,37.6585241 L111.866016,32.7820056 L113.236529,32.7820056 L113.236529,34.9765981 C114.491191,34.5203204 115.745065,33.9167278 116.518195,33.3418019 L117.611295,34.328413 C116.401555,35.064987 114.739444,35.6988389 113.236529,36.1702463 L113.236529,37.6433944 C113.236529,38.1442648 113.353957,38.2477833 113.995474,38.2477833 L116.124143,38.2477833 Z M107.609466,31.2204685 L115.118522,31.2204685 L115.118522,30.0570796 L107.609466,30.0570796 L107.609466,31.2204685 Z M107.609466,29.00995 L115.118522,29.00995 L115.118522,27.8903574 L107.609466,27.8903574 L107.609466,29.00995 Z M106.238165,32.3098019 L116.547355,32.3098019 L116.547355,26.7858944 L106.238165,26.7858944 L106.238165,32.3098019 Z M111.326953,37.4371537 C111.341927,37.8050426 111.399459,38.3361722 111.472752,38.6156722 C107.14212,39.2933204 106.544738,39.4255056 106.150686,39.6182093 C106.07818,39.278987 105.874061,38.6753944 105.654968,38.3943019 C105.975726,38.27645 106.428098,38.0415426 106.428098,37.4658204 L106.428098,32.8258019 L107.841957,32.8258019 L107.841957,34.2543574 L111.151994,34.2543574 L111.151994,35.4918019 L107.841957,35.4918019 L107.841957,37.9236907 L111.326953,37.4371537 Z" id="Fill-30"></path>
                <path d="M144.49652,35.6103704 L146.231926,35.6103704 L146.231926,33.8871852 L144.49652,33.8871852 L144.49652,35.6103704 Z M141.53719,35.6103704 L143.242647,35.6103704 L143.242647,33.8871852 L141.53719,33.8871852 L141.53719,35.6103704 Z M145.371316,30.3213704 C144.438201,29.6580556 143.475926,28.8920185 142.455331,27.979463 C141.682201,28.8187593 140.792431,29.613463 139.860104,30.3213704 L145.371316,30.3213704 Z M138.620416,35.6103704 L140.282528,35.6103704 L140.282528,33.8871852 L138.620416,33.8871852 L138.620416,35.6103704 Z M147.558305,38.4531481 C147.558305,39.0424074 147.471613,39.3967593 147.105933,39.5886667 C146.727643,39.8092407 146.202766,39.8235741 145.44461,39.8235741 C145.41545,39.4700185 145.239703,38.9548148 145.064743,38.6155926 C145.517115,38.6315185 145.911167,38.6315185 146.042781,38.6155926 C146.187792,38.6155926 146.231926,38.5869259 146.231926,38.4388148 L146.231926,36.7745556 L144.49652,36.7745556 L144.49652,39.7065185 L143.242647,39.7065185 L143.242647,36.7745556 L141.53719,36.7745556 L141.53719,39.7065185 L140.282528,39.7065185 L140.282528,36.7745556 L138.620416,36.7745556 L138.620416,39.8387037 L137.294037,39.8387037 L137.294037,32.723 L147.558305,32.723 L147.558305,38.4531481 Z M143.534245,26.6966296 C143.431792,26.8296111 143.3451,26.9617963 143.242647,27.0804444 C145.254677,28.8474259 147.34,30.1007963 149.294498,31.0579444 C148.943792,31.3374444 148.550528,31.8088519 148.345621,32.207 C147.413294,31.6758704 146.47939,31.1017407 145.502929,30.4097593 L145.502929,31.5150185 L139.261933,31.5150185 L139.261933,30.7489815 C138.372164,31.3669074 137.454022,31.9426296 136.564253,32.3845741 C136.345948,32.0310185 135.995242,31.5436852 135.646112,31.2203889 C138.168045,30.129463 140.939019,28.2295 142.513651,26.1232963 L143.534245,26.6966296 Z" id="Fill-32"></path>
                <path d="M170.697041,33.755 L172.067554,33.755 L172.067554,32.4872963 L170.697041,32.4872963 L170.697041,33.755 Z M169.793086,34.5345741 L173.014855,34.5345741 L173.014855,31.7061296 L169.793086,31.7061296 L169.793086,34.5345741 Z M177.127182,31.6917963 C176.778052,33.031963 176.237413,34.1961481 175.566736,35.1827593 C175.814989,35.8166111 176.135747,36.213963 176.514825,36.2880185 C176.689784,36.3461481 176.82061,35.7433519 176.908877,34.8292037 C177.127182,35.0497778 177.53542,35.3452037 177.768699,35.4781852 C177.565368,37.1567778 176.952223,37.7325 176.106587,37.3932778 C175.566736,37.2451667 175.130126,36.8183519 174.77942,36.1701667 C174.269517,36.729963 173.68632,37.2308333 173.044015,37.6433148 C172.899004,37.4378704 172.504952,36.9951296 172.285859,36.8040185 C172.679911,36.5675185 173.059777,36.3023519 173.408907,36.0077222 C171.980862,36.2442222 170.507896,36.5229259 169.340714,36.729963 L169.194914,35.6987593 C170.259643,35.5514444 171.849249,35.3014074 173.423881,35.0497778 L173.453041,35.9639259 C173.773799,35.6836296 174.065398,35.375463 174.327048,35.0362407 C173.977918,33.9166481 173.758825,32.4872963 173.613814,30.9257593 L169.340714,30.9257593 L169.340714,29.9080926 L173.526335,29.9080926 C173.496387,29.4374815 173.467227,28.9660741 173.438067,28.4946667 L174.560327,28.4946667 C174.576089,28.9660741 174.604461,29.4518148 174.634409,29.9080926 L176.689784,29.9080926 C176.398186,29.5696667 175.770855,29.1579815 175.245978,28.8920185 L175.873309,28.258963 C176.398186,28.509 177.039703,28.9079444 177.360461,29.2312407 L176.718944,29.9080926 L177.607926,29.9080926 L177.607926,30.9257593 L174.7211,30.9257593 C174.823554,31.9864259 174.970141,32.9881667 175.144312,33.8131296 C175.537576,33.1060185 175.829175,32.3248519 176.048268,31.4704259 L177.127182,31.6917963 Z M168.670037,37.9817407 L178.206097,37.9817407 L178.206097,28.1849074 L168.670037,28.1849074 L168.670037,37.9817407 Z M179.54745,26.947463 L179.54745,39.8673704 L178.206097,39.8673704 L178.206097,39.2199815 L168.670037,39.2199815 L168.670037,39.8673704 L167.387792,39.8673704 L167.387792,26.947463 L179.54745,26.947463 Z" id="Fill-34"></path>
                <path d="M209.377899,36.0377426 C209.94691,36.818113 210.734226,37.8652426 211.128278,38.4975019 L210.063549,39.1464833 C209.713631,38.4975019 208.955475,37.3930389 208.372278,36.6118722 L209.377899,36.0377426 Z M207.9932,28.4800944 C208.197319,29.1282796 208.430598,29.7318722 208.736382,30.2773352 C209.100486,29.7470019 209.436219,29.0980204 209.685259,28.4800944 L207.9932,28.4800944 Z M208.533051,32.0745759 C207.730761,30.9995759 207.176724,29.6140204 206.782672,28.0373537 C206.374434,29.6578167 205.675386,30.9995759 204.82975,32.0745759 L208.533051,32.0745759 Z M207.336709,35.4914833 L207.336709,38.4688352 C207.336709,39.0732241 207.234256,39.41165 206.811832,39.6027611 C206.404382,39.7946685 205.791237,39.8090019 204.960575,39.8090019 C204.901468,39.4562426 204.712323,38.9545759 204.552338,38.6312796 C205.163906,38.6599463 205.688784,38.6599463 205.864531,38.6448167 C206.053676,38.6312796 206.082836,38.586687 206.082836,38.4393722 L206.082836,35.4914833 L203.093557,35.4914833 L203.093557,34.372687 L210.399282,34.372687 L210.399282,35.4914833 L207.336709,35.4914833 Z M204.813988,36.4948167 C204.34743,37.4081685 203.677542,38.4831685 203.137691,39.17515 C202.904412,38.9689093 202.42288,38.6599463 202.117096,38.5126315 C202.686107,37.8652426 203.268516,36.9359648 203.662568,36.1253352 L204.813988,36.4948167 Z M211.157438,27.9202981 C210.72004,29.1139463 210.03439,30.3657241 209.333765,31.2352796 C209.874404,31.9423907 210.515133,32.5165204 211.302449,32.9003352 C211.054984,33.1209093 210.72004,33.5620574 210.544293,33.8869463 C209.961096,33.5477241 209.451193,33.1503722 208.999609,32.6487056 L208.999609,33.1790389 L204.479044,33.1790389 L204.479044,32.4870574 C203.9983,33.0173907 203.457661,33.4736685 202.919386,33.8288167 C202.757825,33.577187 202.4812,33.2085019 202.233735,33.0030574 C202.816932,32.6789648 203.385155,32.2067611 203.880873,31.6175019 C203.575088,31.3523352 203.210984,31.0728352 202.889438,30.8514648 L203.415103,30.2773352 C203.720888,30.4684463 204.084992,30.733613 204.37659,30.970113 C204.566523,30.7184833 204.727297,30.4238537 204.88807,30.14515 C204.596471,29.90865 204.231579,29.6737426 203.925007,29.4953722 L204.37659,28.8774463 C204.654003,29.0239648 204.960575,29.2166685 205.2372,29.4077796 C205.397973,29.0398907 205.543772,28.6712056 205.659624,28.288187 L204.303297,28.288187 C203.809155,29.2604648 203.210984,30.1292241 202.56868,30.7782056 C202.394509,30.6014278 201.985483,30.2478722 201.723044,30.0854278 C202.744427,29.1864093 203.545929,27.80165 203.9983,26.3133722 L205.003921,26.5498722 C204.916442,26.8445019 204.799802,27.1247981 204.683163,27.4042981 L206.024516,27.4042981 L206.200263,27.3605019 L206.651847,27.5372796 C206.607713,27.2864463 206.549393,27.035613 206.505259,26.7704463 L207.525854,26.5785389 C207.584962,26.9034278 207.657468,27.2283167 207.730761,27.5372796 L210.179401,27.5372796 L210.399282,27.4624278 L211.157438,27.9202981 Z M202.525334,27.3453722 C202.13207,28.5533537 201.64975,30.0113722 201.227326,31.1763537 C202.13207,32.3540759 202.350375,33.4155389 202.350375,34.2691685 C202.350375,35.1387241 202.175416,35.7725759 201.767178,36.0815389 C201.563059,36.22965 201.314018,36.3180389 201.009022,36.3769648 C200.760769,36.4064278 200.410851,36.4064278 200.090092,36.3905019 C200.075118,36.0672056 199.973453,35.5360759 199.798494,35.2127796 C200.075118,35.227113 200.309185,35.2422426 200.512516,35.227113 C200.673289,35.2127796 200.789929,35.1833167 200.906568,35.0941315 C201.111475,34.947613 201.169007,34.5789278 201.169007,34.1369833 C201.169007,33.4012056 200.979862,32.4137981 200.075118,31.3093352 C200.410851,30.3362611 200.760769,29.0980204 201.022419,28.1257426 L199.521869,28.1257426 L199.521869,39.7795389 L198.355475,39.7795389 L198.355475,26.8890944 L201.460605,26.8890944 L201.64975,26.8445019 L202.525334,27.3453722 Z" id="Fill-35"></path>
            </g>
        </g>
    </g>
</svg>