<?xml version="1.0" encoding="UTF-8"?>
<svg width="90px" height="120px" viewBox="0 0 90 120" version="1.1" xmlns="http://www.w3.org/2000/svg" xmlns:xlink="http://www.w3.org/1999/xlink">
    <!-- Generator: Sketch 46.2 (44496) - http://www.bohemiancoding.com/sketch -->
    <title>Page 1</title>
    <desc>Created with Sketch.</desc>
    <defs></defs>
    <g id="Page-1" stroke="none" stroke-width="1" fill="none" fill-rule="evenodd">
        <g id="帐户开立流程" transform="translate(-1008.000000, -307.000000)" fill="#1F61B1">
            <g id="Page-1" transform="translate(1008.000000, 306.000000)">
                <polygon id="Fill-1" points="23.05125 54.8104375 66.69 54.8104375 66.69 49.7479375 23.05125 49.7479375"></polygon>
                <polygon id="Fill-2" points="23.05125 73.8848125 66.69 73.8848125 66.69 68.8223125 23.05125 68.8223125"></polygon>
                <path d="M11.080125,0.9994375 L11.080125,49.1588125 L0.537,59.5331875 L0.00075,60.3188125 L0.385125,60.7144375 L0.385125,120.150063 L89.35575,120.150063 L89.35575,59.2725625 L88.768875,59.2725625 L78.658875,48.5625625 L78.658875,0.9994375 L11.080125,0.9994375 Z M16.705125,72.0600625 L16.705125,6.6263125 L73.03575,6.6263125 L73.03575,71.2088125 L43.472625,101.137563 L16.705125,72.0600625 Z M78.658875,56.7581875 L82.885125,61.2356875 L78.658875,65.5144375 L78.658875,56.7581875 Z M6.782625,61.2806875 L11.080125,57.0488125 L11.080125,65.9494375 L6.782625,61.2806875 Z M83.73075,68.3888125 L83.73075,114.526938 L6.010125,114.526938 L6.010125,68.7469375 L43.32825,109.288188 L83.73075,68.3888125 Z" id="Fill-3"></path>
                <polygon id="Fill-4" points="48.843375 18.332875 66.689625 18.332875 66.689625 13.27225 23.050875 13.27225 23.050875 18.332875 43.747125 18.332875"></polygon>
                <polygon id="Fill-5" points="30.55575 36.5719375 60.90075 36.5719375 66.057 36.5719375 66.688875 36.5719375 66.688875 31.5094375 61.2795 31.5094375 56.12325 31.5094375 35.702625 31.5094375 30.355125 31.5094375 23.050125 31.5094375 23.050125 36.5719375 25.210125 36.5719375"></polygon>
            </g>
        </g>
    </g>
</svg>