<?xml version="1.0" encoding="UTF-8"?>
<svg width="80px" height="81px" viewBox="0 0 80 81" version="1.1" xmlns="http://www.w3.org/2000/svg" xmlns:xlink="http://www.w3.org/1999/xlink">
    <!-- Generator: Sketch 46.2 (44496) - http://www.bohemiancoding.com/sketch -->
    <title>海外股票</title>
    <desc>Created with Sketch.</desc>
    <defs>
        <polygon id="path-1" points="79.4761083 0.818291667 0 0.818291667 0 80.2911542 79.4761083 80.2911542"></polygon>
    </defs>
    <g id="Page-1" stroke="none" stroke-width="1" fill="none" fill-rule="evenodd">
        <g id="保证金帐户优势_2-copy" transform="translate(-813.000000, -383.000000)">
            <g id="海外股票" transform="translate(813.000000, 383.000000)">
                <mask id="mask-2" fill="white">
                    <use xlink:href="#path-1"></use>
                </mask>
                <g id="Clip-2"></g>
                <path d="M36.7233583,24.0835708 L36.7233583,37.5401125 L23.3829833,37.5401125 C23.6119,32.6201125 24.4045667,27.7872375 25.6909417,23.4651542 C29.264775,23.8034042 32.97015,24.0101125 36.7233583,24.0835708 L36.7233583,24.0835708 Z M16.5001083,16.1722792 C19.0233167,13.7686542 21.92065,11.7545292 25.0383583,10.2324042 C23.7331917,12.2055292 22.5646917,14.4451542 21.546525,16.9307792 C19.8279417,16.7069875 18.1401083,16.4524458 16.5001083,16.1722792 L16.5001083,16.1722792 Z M36.7233583,63.0540708 L36.7233583,73.6423208 C33.3938167,72.2876125 30.3085667,68.7513625 27.88615,63.5084875 C30.8159417,63.2676125 33.7799,63.1155708 36.7233583,63.0540708 L36.7233583,63.0540708 Z M25.0383583,70.8782375 C21.9223583,69.3561125 19.0267333,67.3419875 16.5001083,64.9366542 C18.1366917,64.6564875 19.8262333,64.4036542 21.5482333,64.1781542 C22.5664,66.6637792 23.7349,68.9051125 25.0383583,70.8782375 L25.0383583,70.8782375 Z M23.3829833,43.5671125 L36.72165,43.5671125 L36.7233583,57.0236542 C32.985525,57.0954042 29.2818583,57.3021125 25.6909417,57.6454875 C24.4045667,53.3165708 23.6119,48.4819875 23.3829833,43.5671125 L23.3829833,43.5671125 Z M27.88615,17.6021542 C30.310275,12.3575708 33.395525,8.82302917 36.7233583,7.47002917 L36.7233583,18.0565708 C33.7662333,17.9967792 30.802275,17.8430292 27.88615,17.6021542 L27.88615,17.6021542 Z M19.568275,22.7510708 C18.3006917,27.3533208 17.5524417,32.3194458 17.344025,37.5418208 L6.16981667,37.5418208 C6.68573333,31.7710708 8.68619167,26.2394875 11.9866917,21.4595708 C14.5389417,21.9686542 17.08265,22.4025708 19.568275,22.7510708 L19.568275,22.7510708 Z M17.344025,43.5705292 C17.55415,48.7963208 18.3024,53.7624458 19.568275,58.3612792 C17.077525,58.7114875 14.5338167,59.1419875 11.9866917,59.6493625 C8.68448333,54.8677375 6.68573333,49.3361542 6.16981667,43.5705292 L17.344025,43.5705292 Z M73.309025,43.5671125 C72.7896917,49.3361542 70.7892333,54.8677375 67.4904417,59.6493625 C64.9467333,59.1419875 62.403025,58.7114875 59.90715,58.3595708 C61.1747333,53.7573208 61.9229833,48.7894875 62.1331083,43.5671125 L73.309025,43.5671125 Z M42.7520667,18.0565708 L42.7520667,7.4717375 C46.0474417,8.8349875 49.1924833,12.4327375 51.5909833,17.6004458 C48.6919417,17.8413208 45.7279833,17.9950708 42.7520667,18.0565708 L42.7520667,18.0565708 Z M56.0924417,43.5705292 C55.8652333,48.4802792 55.074275,53.3131542 53.7879,57.6454875 C50.2294417,57.3089458 46.525775,57.1005292 42.753775,57.0253625 L42.7520667,43.5705292 L56.0924417,43.5705292 Z M57.9289,16.9307792 C56.9107333,14.4451542 55.7422333,12.2038208 54.4404833,10.2324042 C57.5581917,11.7545292 60.4538167,13.7686542 62.977025,16.1722792 C61.3199417,16.4558625 59.6304,16.7104042 57.9289,16.9307792 L57.9289,16.9307792 Z M56.0907333,37.5418208 L42.7520667,37.5418208 L42.7520667,24.0852792 C46.4899,24.0118208 50.195275,23.8051125 53.7861917,23.4668625 C55.0725667,27.7923625 55.8652333,32.6269458 56.0907333,37.5418208 L56.0907333,37.5418208 Z M62.9753167,64.9366542 C60.4521083,67.3419875 57.554775,69.3561125 54.438775,70.8782375 C55.7422333,68.9051125 56.9107333,66.6637792 57.9289,64.1781542 C59.6543167,64.4053625 61.3438583,64.6581958 62.9753167,64.9366542 L62.9753167,64.9366542 Z M62.1314,37.5401125 C61.921275,32.3143208 61.173025,27.3464875 59.9054417,22.7493625 C62.4201083,22.3974458 64.9638167,21.9635292 67.4887333,21.4561542 C70.7909417,26.2394875 72.7896917,31.7710708 73.3073167,37.5401125 L62.1314,37.5401125 Z M51.589275,63.5067792 C49.1924833,68.6744875 46.0474417,72.2722375 42.7520667,73.6371958 L42.7520667,63.0540708 C45.7245667,63.1155708 48.6868167,63.2676125 51.589275,63.5067792 L51.589275,63.5067792 Z M39.7385667,0.817779167 C17.825775,0.817779167 -0.000683333333,18.6425292 -0.000683333333,40.5553208 C-0.000683333333,62.4664042 17.825775,80.2911542 39.7385667,80.2911542 C61.64965,80.2911542 79.4761083,62.4664042 79.4761083,40.5553208 C79.4761083,18.6425292 61.64965,0.817779167 39.7385667,0.817779167 L39.7385667,0.817779167 Z" id="Fill-1" fill="#2066BA" mask="url(#mask-2)"></path>
            </g>
        </g>
    </g>
</svg>