<?xml version="1.0" encoding="UTF-8"?>
<svg width="115px" height="119px" viewBox="0 0 115 119" version="1.1" xmlns="http://www.w3.org/2000/svg" xmlns:xlink="http://www.w3.org/1999/xlink">
    <!-- Generator: Sketch 46.2 (44496) - http://www.bohemiancoding.com/sketch -->
    <title>Page 1</title>
    <desc>Created with Sketch.</desc>
    <defs>
        <polygon id="path-1" points="114.16381 118.094857 114.16381 0.571428571 0.000571428571 0.571428571 0.000571428571 118.094857"></polygon>
        <polygon id="path-3" points="0 119.428952 114.16381 119.428952 114.16381 1.90514286 0 1.90514286"></polygon>
    </defs>
    <g id="Page-1" stroke="none" stroke-width="1" fill="none" fill-rule="evenodd">
        <g id="帐户开立流程" transform="translate(-269.000000, -308.000000)">
            <g id="Page-1" transform="translate(269.000000, 307.000000)">
                <g id="Group-3" transform="translate(0.000000, 1.333714)">
                    <mask id="mask-2" fill="white">
                        <use xlink:href="#path-1"></use>
                    </mask>
                    <g id="Clip-2"></g>
                    <path d="M105.41581,68.5862857 L102.438667,65.6110476 C102.438667,65.6110476 102.438667,65.6072381 102.436762,65.6072381 C102.434857,65.6072381 102.432952,65.6053333 102.432952,65.6034286 L95.4824762,58.6529524 L99.9929524,54.1424762 L109.926286,64.0758095 L105.41581,68.5862857 Z M90.0958095,83.9062857 L86.2862857,87.7158095 L79.9624762,94.0377143 L78.2253333,92.2986667 L86.2862857,84.239619 L90.0958095,80.4300952 L101.194857,69.3310476 L102.932,71.0681905 L90.0958095,83.9062857 Z M85.3339048,112.380571 L5.71485714,112.380571 L5.71485714,6.28533333 L85.3339048,6.28533333 L85.3339048,63.8358095 L73.1548571,76.0129524 L15.8100952,76.0129524 L15.8100952,81.1558095 L68.012,81.1558095 L61.3377143,87.832 C61.0939048,88.0739048 60.9262857,88.3862857 60.8577143,88.7234286 L59.6824762,94.5405714 L15.8100952,94.5405714 L15.8100952,99.6834286 L58.644381,99.6834286 L57.7148571,104.285333 C57.5986667,104.862476 57.7777143,105.458667 58.1929524,105.87581 C58.5262857,106.207238 58.9739048,106.390095 59.4348571,106.390095 C59.5510476,106.390095 59.6672381,106.378667 59.7834286,106.353905 L75.3434286,103.209143 C75.6824762,103.140571 75.9929524,102.974857 76.2367619,102.729143 L81.2005714,97.7653333 C81.2024762,97.7634286 81.2024762,97.7634286 81.204381,97.7615238 C81.2062857,97.759619 81.2062857,97.759619 81.2081905,97.7577143 L85.3339048,93.632 L85.3339048,112.380571 Z M77.4786667,96.5215238 L75.2386667,98.7634286 L74.3167619,99.6834286 L74.1281905,99.8739048 L61.6805714,102.38819 L62.2272381,99.6834286 L63.2653333,94.5405714 L64.1948571,89.9386667 L67.5453333,86.5881905 L77.4786667,96.5215238 Z M75.7415238,89.8167619 L74.2500952,88.3253333 L86.2862857,76.2910476 L90.0958095,72.4815238 L97.219619,65.3577143 L98.7110476,66.8472381 L90.0958095,75.4624762 L86.2862857,79.272 L75.7415238,89.8167619 Z M90.0958095,64.039619 L92.9986667,61.1367619 L94.7377143,62.8739048 L90.0958095,67.5158095 L86.2862857,71.3253333 L71.7681905,85.8453333 L70.0291429,84.104381 L72.979619,81.1558095 L75.2386667,78.8967619 L86.2862857,67.8491429 L90.0958095,64.039619 Z M113.650095,62.832 L101.236762,50.4167619 C100.905333,50.0872381 100.459619,49.9024762 99.9929524,49.9024762 C99.5281905,49.9024762 99.0805714,50.0872381 98.7510476,50.4167619 L91.7605714,57.4091429 C91.7586667,57.4110476 91.7586667,57.4110476 91.7567619,57.4110476 C91.7567619,57.4129524 91.7567619,57.4129524 91.7548571,57.4148571 L91.0481905,58.1215238 L91.0481905,0.571047619 L0.000571428571,0.571047619 L0.000571428571,118.094857 L91.0481905,118.094857 L91.0481905,87.9177143 L106.653905,72.312 C106.653905,72.312 106.65581,72.3100952 106.657714,72.3100952 C106.657714,72.3081905 106.657714,72.3081905 106.659619,72.3062857 L113.650095,65.3158095 C114.33581,64.632 114.33581,63.519619 113.650095,62.832 L113.650095,62.832 Z" id="Fill-1" fill="#1F61B1" mask="url(#mask-2)"></path>
                </g>
                <mask id="mask-4" fill="white">
                    <use xlink:href="#path-3"></use>
                </mask>
                <g id="Clip-5"></g>
                <polygon id="Fill-4" fill="#1F61B1" mask="url(#mask-4)" points="15.8095238 26.9051429 75.2380952 26.9051429 75.2380952 21.7622857 15.8095238 21.7622857"></polygon>
                <polygon id="Fill-6" fill="#1F61B1" mask="url(#mask-4)" points="15.8095238 45.4327619 75.2380952 45.4327619 75.2380952 40.2899048 15.8095238 40.2899048"></polygon>
                <polygon id="Fill-7" fill="#1F61B1" mask="url(#mask-4)" points="15.8095238 63.9622857 75.2380952 63.9622857 75.2380952 58.8194286 15.8095238 58.8194286"></polygon>
            </g>
        </g>
    </g>
</svg>