<?xml version="1.0" encoding="UTF-8"?>
<svg width="83px" height="79px" viewBox="0 0 83 79" version="1.1" xmlns="http://www.w3.org/2000/svg" xmlns:xlink="http://www.w3.org/1999/xlink">
    <!-- Generator: Sketch 46.2 (44496) - http://www.bohemiancoding.com/sketch -->
    <title>24小时服务</title>
    <desc>Created with Sketch.</desc>
    <defs>
        <polygon id="path-1" points="1.39432013e-15 78.6055417 82.5448234 78.6055417 82.5448234 1.21384384e-14 0 0"></polygon>
    </defs>
    <g id="Page-1" stroke="none" stroke-width="1" fill="none" fill-rule="evenodd">
        <g id="保证金帐户优势_2-copy" transform="translate(-549.000000, -541.000000)">
            <g id="24小时服务" transform="translate(549.000000, 541.000000)">
                <path d="M40.7180833,26.7437083 C41.6064167,26.7437083 42.3273333,27.218625 42.88425,28.1701667 C43.4411667,29.1234167 43.7179167,30.56525 43.7179167,32.5007917 L50.566625,32.5007917 C50.566625,29.453125 49.8918333,26.93675 48.5456667,24.9516667 C47.1977917,22.9682917 45.3152083,21.7417083 42.8962083,21.2753333 L42.8962083,16 L39.2420833,16 L39.2420833,21.1779583 C36.806,21.5008333 34.8465417,22.5377917 33.362,24.2888333 C31.8791667,26.0381667 31.13775,28.2521667 31.13775,30.929125 C31.13775,32.7194583 31.4281667,34.2637917 32.0072917,35.562125 C32.588125,36.8604583 33.4713333,38.0152917 34.6569167,39.0215 C35.8425,40.0294167 37.6704167,41.0834583 40.13725,42.1802083 C41.3945833,42.8584167 42.2982917,43.58275 42.848375,44.3583333 C43.3950417,45.1322083 43.6700833,46.1879583 43.6700833,47.5272917 C43.6700833,48.8170833 43.391625,49.830125 42.8347083,50.563 C42.2795,51.2975833 41.5090417,51.664875 40.5250417,51.664875 C39.2984583,51.664875 38.379375,51.152375 37.7660833,50.127375 C37.1527917,49.1040833 36.847,47.6400417 36.847,45.7369583 L30,45.7369583 C30,49.0272083 30.7567917,51.6614583 32.2737917,53.6362917 C33.7907917,55.611125 35.9432917,56.8018333 38.7347083,57.205 L38.7347083,62.0190833 L42.3632083,62.0190833 L42.3632083,57.205 C44.9120417,56.86675 46.9090833,55.84175 48.352625,54.1317083 C49.7944583,52.4216667 50.5170833,50.20425 50.5170833,47.4794583 C50.5170833,45.7369583 50.24375,44.2285 49.695375,42.9540833 C49.147,41.6796667 48.3030833,40.5385 47.1653333,39.5305833 C46.0292917,38.5226667 44.170625,37.4054167 41.5893333,36.1788333 C40.1850833,35.357125 39.2335417,34.5661667 38.7347083,33.809375 C38.2341667,33.0491667 37.98475,32.0993333 37.98475,30.9530417 C37.98475,29.6290833 38.2273333,28.5989583 38.7107917,27.8558333 C39.19425,27.1144167 39.8639167,26.7437083 40.7180833,26.7437083" id="Fill-1" fill="#2066BA"></path>
                <g id="Group-5" transform="translate(0.000000, 0.022550)">
                    <mask id="mask-2" fill="white">
                        <use xlink:href="#path-1"></use>
                    </mask>
                    <g id="Clip-4"></g>
                    <path d="M76.7791984,51.0995317 C83.2862401,30.4321151 71.7652401,8.32457341 51.0995317,1.81753174 C30.4321151,-4.68950992 8.32457341,6.83149008 1.81753174,27.4971984 C-4.68950992,48.1663234 6.83149008,70.2721567 27.4971984,76.7791984 C32.7161567,78.4226151 38.0922817,78.9624484 43.4752401,78.3781984 L42.8294901,72.3682817 C38.2733651,72.8585734 33.7257817,72.4041567 29.3131567,71.0118651 C11.8266567,65.5076151 2.07719841,46.7979484 7.58315674,29.3131567 C13.0891151,11.8266567 31.7970734,2.07890674 49.2835734,7.58315674 C66.7700734,13.0891151 76.5178234,31.7970734 71.0135734,49.2852817 L65.2462401,47.4676151 L69.3564901,64.6073234 L82.5448234,52.9137817 L76.7791984,51.0995317 Z" id="Fill-3" fill="#2066BA" mask="url(#mask-2)"></path>
                </g>
            </g>
        </g>
    </g>
</svg>