<?xml version="1.0" encoding="UTF-8"?>
<svg width="80px" height="71px" viewBox="0 0 80 71" version="1.1" xmlns="http://www.w3.org/2000/svg" xmlns:xlink="http://www.w3.org/1999/xlink">
    <!-- Generator: Sketch 46.2 (44496) - http://www.bohemiancoding.com/sketch -->
    <title>深入分析</title>
    <desc>Created with Sketch.</desc>
    <defs>
        <polygon id="path-1" points="79.5212083 70.0951375 79.5212083 0.2516375 0.4617625 0.2516375 0.4617625 70.0951375 79.5212083 70.0951375"></polygon>
    </defs>
    <g id="Page-1" stroke="none" stroke-width="1" fill="none" fill-rule="evenodd">
        <g id="保证金帐户优势_2-copy" transform="translate(-824.000000, -549.000000)">
            <g id="深入分析" transform="translate(823.000000, 549.000000)">
                <g id="Group-6" transform="translate(0.625000, 0.724229)">
                    <mask id="mask-2" fill="white">
                        <use xlink:href="#path-1"></use>
                    </mask>
                    <g id="Clip-5"></g>
                    <polygon id="Fill-4" fill="#2066BA" mask="url(#mask-2)" points="79.0946375 64.1159708 63.2413042 64.1159708 63.2413042 28.5638458 62.8142208 28.1367625 55.3915125 28.1367625 54.9644292 28.5638458 54.9644292 64.1159708 46.2228875 64.1159708 46.2228875 36.0070542 45.7958042 35.5799708 38.3730958 35.5799708 37.9460125 36.0070542 37.9460125 64.1159708 31.0118875 64.1159708 31.0118875 40.9390125 30.5848042 40.5119292 23.1638042 40.5119292 22.7367208 40.9390125 22.7367208 64.1159708 6.44092917 64.1159708 6.44092917 0.678720833 6.01384583 0.2516375 0.888845833 0.2516375 0.4617625 0.678720833 0.4617625 69.6680542 0.888845833 70.0951375 79.0946375 70.0951375 79.5217208 69.6680542 79.5217208 64.5430542"></polygon>
                </g>
                <polygon id="Fill-7" fill="#2066BA" points="27.0266083 26.2942208 34.051275 34.4446792 55.0671917 18.9108042 59.7514417 24.9770958 61.8458583 8.74109583 45.6064417 6.64667917 50.8937333 13.5005125 35.0899417 25.1820958 27.8790667 16.8180958 11.2586917 30.2558458 15.5534417 35.5687625"></polygon>
            </g>
        </g>
    </g>
</svg>