<?xml version="1.0" encoding="UTF-8"?>
<svg width="77px" height="81px" viewBox="0 0 77 81" version="1.1" xmlns="http://www.w3.org/2000/svg" xmlns:xlink="http://www.w3.org/1999/xlink">
    <!-- Generator: Sketch 46.2 (44496) - http://www.bohemiancoding.com/sketch -->
    <title>低佣金</title>
    <desc>Created with Sketch.</desc>
    <defs></defs>
    <g id="Page-1" stroke="none" stroke-width="1" fill="none" fill-rule="evenodd">
        <g id="保证金帐户优势_2-copy" transform="translate(-543.000000, -383.000000)" fill="#1F61B1">
            <g id="低佣金" transform="translate(543.000000, 383.000000)">
                <path d="M29.6394857,43.5981265 L22.4937714,52.7151878 L22.4937714,56.3131469 L38.0536898,56.3131469 L38.0536898,52.0859633 L29.0772,52.0859633 L32.467649,47.2228612 C34.353649,44.9753918 35.6572816,43.0877184 36.3768735,41.5581673 C37.0964653,40.0286163 37.4562612,38.5208204 37.4562612,37.0331061 C37.4562612,34.6383714 36.8052816,32.7925347 35.5066694,31.4939224 C34.2063837,30.1936367 32.3772816,29.5443306 30.0210367,29.5443306 C28.4847918,29.5443306 27.1092,29.9141673 25.8942612,30.6588612 C24.6793224,31.4018816 23.7354857,32.4444531 23.0644245,33.788249 C22.3933633,35.128698 22.0586694,36.6097184 22.0586694,38.2313102 L27.2079347,38.2313102 C27.2079347,36.8155551 27.4539347,35.7194327 27.9425878,34.9395959 C28.4329143,34.1580857 29.0956082,33.7681673 29.9289959,33.7681673 C30.6904245,33.7681673 31.2744653,34.1028612 31.6794449,34.7705755 C32.0844245,35.4382898 32.2869143,36.3603714 32.2869143,37.5368204 C32.2869143,38.4103714 32.0727102,39.3240857 31.6426286,40.2779633 C31.2142204,41.2301673 30.5465061,42.3363306 29.6394857,43.5981265" id="Fill-1"></path>
                <path d="M45.6902327,46.3372612 L49.5710082,37.7055061 L49.6797837,37.5063633 L49.6797837,46.3372612 L45.6902327,46.3372612 Z M54.8123143,56.3128122 L54.8123143,50.5627714 L57.0614571,50.5627714 L57.0614571,46.3372612 L54.8123143,46.3372612 L54.8123143,29.9071388 L49.663049,29.9071388 L40.7032939,47.2727306 L40.9392531,50.5627714 L49.6797837,50.5627714 L49.6797837,56.3128122 L54.8123143,56.3128122 Z" id="Fill-3"></path>
                <g id="Group-7" transform="translate(0.000000, 0.303298)">
                    <path d="M76.9558286,40.1080408 L71.0417878,40.3757959 C71.2442776,44.8606939 70.5246857,49.2769796 68.8997469,53.5108571 C64.3395429,65.382449 53.5356245,73.0251837 41.6690531,74.21 L41.7878694,66.4250204 L38.4409306,66.3714694 L38.3187673,74.3673061 C34.4865224,74.3505714 30.5990531,73.689551 26.8153388,72.2369796 C14.255951,67.4123673 6.3906449,55.6043673 5.94382857,42.9328571 L14.8433388,42.9328571 L14.8433388,39.5859184 L6.00407347,39.5859184 C6.21995102,36.4314286 6.89770612,33.2551837 8.08921633,30.1542449 C13.0443592,17.2534694 25.3694612,9.33795918 38.4258694,9.29444898 L38.2668898,19.654898 L41.6138286,19.708449 L41.7711347,9.46012245 C44.5859102,9.74293878 47.4073796,10.3654694 50.1736245,11.426449 L48.0499918,16.9539184 L65.0557878,13.9717959 L54.4192163,0.369836735 L52.2955837,5.89897959 C32.4833796,-1.71195918 10.1710122,8.21673469 2.56007347,28.0289388 C-5.04919184,47.8428163 4.87950204,70.1551837 24.6933796,77.764449 C44.5089306,85.3770612 66.817951,75.4466939 74.4272163,55.6328163 C76.3500327,50.6308163 77.2001551,45.4062449 76.9558286,40.1080408" id="Fill-5"></path>
                </g>
            </g>
        </g>
    </g>
</svg>